<svg width="361" height="123" viewBox="0 0 361 123" fill="none" xmlns="http://www.w3.org/2000/svg">
<path d="M58.48 0.599998H62.96C63.216 0.599998 64.2827 1.70933 66.16 3.92799V4.43999C66.16 4.78133 64.6667 5.63466 61.68 6.99999C60.0587 8.70666 58.352 10.968 56.56 13.784V14.424C56.9867 15.192 58.1387 15.9173 60.016 16.6H62.96L71.92 20.696C77.04 23.3413 80.9653 25.6027 83.696 27.48C88.4747 29.6987 98.928 35.672 115.056 45.4C123.163 50.0933 128.624 54.1893 131.44 57.688V59.48C130.501 62.2107 128.795 64.5573 126.32 66.52H123.632C119.024 64.3867 115.611 60.76 113.392 55.64L95.984 42.2C83.184 33.5813 75.0347 28.4613 71.536 26.84C71.3653 26.072 68.9333 24.7067 64.24 22.744C62.5333 21.3787 59.8453 20.44 56.176 19.928C56.176 19.5013 55.9627 19.288 55.536 19.288H54.256C53.3173 19.288 51.0133 22.36 47.344 28.504C40.8587 38.5733 33.8187 48.8987 26.224 59.48C25.8827 59.48 24.176 61.6133 21.104 65.88C11.8027 75.6933 6.768 80.6 6 80.6H4.08C2.032 79.1493 0.752 77.656 0.240001 76.12V75.48C3.65333 71.0427 7.92 66.264 13.04 61.144C15.0027 58.4133 17.5627 55.2133 20.72 51.544C31.472 37.1227 40.816 23.768 48.752 11.48C53.5307 5.08 56.2187 1.88 56.816 1.88C57.84 1.02666 58.3947 0.599998 58.48 0.599998ZM66.8 41.048H76.272C76.784 41.048 77.4667 41.8587 78.32 43.48V44.76C75.5893 51.8427 72.3893 56.024 68.72 57.304L66.8 58.2C66.1173 58.0293 65.5627 57.304 65.136 56.024C65.3067 55.5973 65.392 55.1707 65.392 54.744L65.136 54.104C65.3067 53.592 65.392 53.2507 65.392 53.08C64.9653 53.08 64.752 52.696 64.752 51.928H63.344L58.48 53.336C58.3093 53.336 51.6533 55.8107 38.512 60.76H35.44C35.184 60.76 34.1173 59.736 32.24 57.688V57.048C33.9467 54.488 38.4267 51.8853 45.68 49.24C56.0053 44.9733 63.0453 42.2427 66.8 41.048ZM56.56 57.048H59.12C61.5093 58.072 62.7893 58.8827 62.96 59.48V60.12L60.272 62.936V63.96H61.936C63.3013 62.5947 65.776 61.1013 69.36 59.48H70.512C71.28 59.48 71.8347 60.632 72.176 62.936C72.176 65.1547 69.9147 67.416 65.392 69.72C64.0267 70.232 62.576 71.4267 61.04 73.304L62.32 75.48V92.12H62.96C62.96 91.5227 64.5387 89.048 67.696 84.696C68.2933 82.8187 69.9147 80.856 72.56 78.808H73.84C74.096 78.808 74.9067 79.6187 76.272 81.24V83.928C74.48 87.6827 71.1093 92.3333 66.16 97.88C65.648 98.904 64.368 100.525 62.32 102.744V103H63.344L65.392 101.72H91.632L94.576 103H97.392C99.44 104.536 100.763 106.029 101.36 107.48V108.76C99.6533 113.197 97.52 116.397 94.96 118.36H92.272L85.744 114.52H82.8L77.936 112.6H66.8V113.24H65.136C63.6 114.093 60.3147 114.989 55.28 115.928C55.1093 116.44 53.7013 116.909 51.056 117.336C47.8133 118.872 43.0347 120.707 36.72 122.84H32.752C32.496 122.84 31.2587 121.56 29.04 119V117.72C29.6373 116.696 32.0693 115.331 36.336 113.624C39.8347 111.747 44.8693 109.485 51.44 106.84C53.6587 105.56 55.3653 103.512 56.56 100.696V98.264L55.28 95.96V77.4H54.256C52.1227 78.424 50.1173 79.704 48.24 81.24H45.68C45.3387 81.24 44.656 80.6 43.632 79.32V78.808C43.632 77.784 45.3387 75.9493 48.752 73.304C51.6533 72.024 53.8293 69.8907 55.28 66.904V58.2C55.28 57.8587 55.7067 57.4747 56.56 57.048ZM34.8 90.2H41.84C42.1813 90.2 42.608 90.6267 43.12 91.48L41.84 93.144V93.784C41.84 94.3813 43.2053 95.7467 45.936 97.88C49.1787 100.696 50.8 102.189 50.8 102.36V104.28C49.8613 105.987 49.1787 106.84 48.752 106.84H45.68C40.3893 103.853 36.2933 99.3733 33.392 93.4V91.48C33.392 91.1387 33.8613 90.712 34.8 90.2ZM217.785 2.90399H220.985C222.436 3.58666 223.716 4.65333 224.825 6.104C224.825 6.36 225.038 6.78666 225.465 7.384V8.66399C223.246 13.8693 221.412 16.9413 219.961 17.88C214.926 22.8293 212.409 26.3707 212.409 28.504C212.153 28.504 212.025 28.5893 212.025 28.76V31.576C210.062 34.9893 207.502 36.696 204.345 36.696C204.004 37.1227 198.542 38.7867 187.961 41.688C186.084 41.7733 184.292 42.2853 182.585 43.224H179.769L176.825 44.504H169.785L168.889 43.864H167.225V46.168L169.145 51.544V73.304C167.95 76.376 166.756 80.3867 165.561 85.336C163.769 90.0293 162.062 93.784 160.441 96.6C158.137 101.72 154.852 106.627 150.585 111.32C149.049 112.856 147.769 113.837 146.745 114.264H144.825C144.484 114.264 143.844 113.581 142.905 112.216V109.784C143.673 107.395 145.764 103.64 149.177 98.52C154.553 88.3653 157.369 82.264 157.625 80.216C158.478 79.2773 159.033 77.8267 159.289 75.864C159.716 75.5227 160.228 73.4747 160.825 69.72C161.081 69.72 161.508 68.9093 162.105 67.288V41.688C161.764 40.92 161.081 39.0853 160.057 36.184V18.264C160.74 16.8987 161.209 16.216 161.465 16.216H175.801L180.665 14.424H183.481C184.59 13.5707 187.705 12.7173 192.825 11.864C192.996 11.4373 196.068 10.3707 202.041 8.66399C209.806 6.61599 215.054 4.69599 217.785 2.90399ZM197.945 20.184H194.361L192.057 21.336H187.961L183.225 23.384H168.889C167.694 24.152 166.713 25.304 165.945 26.84V35.288C167.14 38.0187 167.865 39.384 168.121 39.384H171.961C174.18 38.0187 177.593 36.952 182.201 36.184C193.55 32.344 199.78 30.424 200.889 30.424C202.34 29.656 203.065 29.1013 203.065 28.76V27.48L202.297 26.456V21.336L203.065 20.44V18.904H200.121L197.945 20.184ZM212.025 45.144H213.945C215.396 45.8267 216.676 46.8507 217.785 48.216V52.696C215.481 56.7067 211.556 59.608 206.009 61.4C203.62 61.912 201.358 63.32 199.225 65.624C199.225 66.3067 198.372 67.8853 196.665 70.36V72.024H196.921C198.03 71.1707 199.737 70.616 202.041 70.36C202.041 70.1893 202.596 69.848 203.705 69.336H207.801L212.665 64.984H220.985C221.924 65.0693 223.63 66.52 226.105 69.336C226.105 69.6773 226.318 70.1467 226.745 70.744V73.816C225.721 75.4373 224.441 76.76 222.905 77.784H220.985C220.644 77.784 220.217 77.3573 219.705 76.504V72.664H219.065C219.065 73.8587 217.358 75.5653 213.945 77.784C213.092 77.784 210.66 78.3813 206.649 79.576C204.516 80.5147 203.065 80.984 202.297 80.984V82.52C203.065 83.9707 203.62 84.696 203.961 84.696C206.35 82.9893 209.892 80.8987 214.585 78.424H217.785C218.041 78.424 218.681 79.0213 219.705 80.216V82.904C218.596 85.464 216.676 87.7253 213.945 89.688C209.678 91.3093 207.46 92.12 207.289 92.12C205.497 93.2293 204.302 93.784 203.705 93.784V102.744H204.601L207.417 101.336H211.129L215.865 99.544H228.921L231.865 98.264H240.441L243.385 96.984H247.225C248.164 97.0693 249.87 98.52 252.345 101.336V105.816C251.15 109.827 249.017 113.069 245.945 115.544C244.665 114.776 242.02 113.667 238.009 112.216H233.145L230.201 110.936H211.129L208.057 112.216H202.681L197.945 114.904H192.441C192.185 115.245 190.905 115.587 188.601 115.928C186.126 116.44 181.348 118.019 174.265 120.664H171.705C171.364 120.664 170.51 119.811 169.145 118.104V116.184C169.316 115.245 171.15 114.392 174.649 113.624C179.342 111.661 181.988 110.381 182.585 109.784C183.182 109.784 186.468 108.461 192.441 105.816C193.806 105.475 194.788 105.304 195.385 105.304V98.264H193.721L187.065 100.696H185.785C184.42 100.184 183.353 99.3733 182.585 98.264V96.984C182.926 95.8747 186.638 93.8267 193.721 90.84C195.684 89.9013 196.665 89.304 196.665 89.048V83.928C196.665 83.5867 196.366 83.2453 195.769 82.904C195.428 83.2453 194.105 83.5867 191.801 83.928L187.065 85.336H182.585C177.721 83.288 175.289 81.2827 175.289 79.32C175.289 77.4427 177.508 75.608 181.945 73.816C186.212 70.232 188.985 66.9467 190.265 63.96V63.576H185.529L183.225 66.264H182.585C181.049 65.0693 179.556 63.3627 178.105 61.144V59.864C179.641 57.4747 181.646 56.28 184.121 56.28C184.633 55.768 185.913 55.3413 187.961 55C187.961 54.8293 188.089 54.744 188.345 54.744H194.361C199.396 51.0747 201.956 49.24 202.041 49.24C205.028 47.5333 208.27 46.2533 211.769 45.4C211.769 45.2293 211.854 45.144 212.025 45.144ZM270.86 1.88H286.22C286.476 1.88 287.329 2.73333 288.78 4.43999V7.63999C287.927 9.34666 287.287 10.2 286.86 10.2H285.58C284.983 9.60266 283.575 8.74933 281.356 7.63999H269.836L267.66 9.048H267.02C266.679 9.048 266.039 8.36533 265.1 6.99999V6.35999C265.697 4.99466 266.551 3.97066 267.66 3.28799C268.001 3.28799 269.068 2.81866 270.86 1.88ZM339.98 5.07999H345.1C349.025 6.35999 351.159 7.21333 351.5 7.63999C353.207 9.09066 354.7 11.48 355.98 14.808V36.696C356.321 37.0373 356.62 38.36 356.876 40.664C357.132 40.664 357.26 40.792 357.26 41.048V46.168L357.9 46.936V73.816L359.18 76.12V87.384L360.46 89.688V110.808C359.777 112.259 359.052 114.136 358.284 116.44C354.785 119.939 352.737 121.688 352.14 121.688H344.46C340.364 119.981 337.036 117.848 334.476 115.288C333.623 114.264 332.257 112.301 330.38 109.4V108.12C331.319 106.499 333.239 105.219 336.14 104.28H337.42C338.444 105.133 339.937 105.645 341.9 105.816L345.356 107.48H346.636C347.575 107.053 348.343 105.901 348.94 104.024V94.424L347.66 90.84V14.424C347.148 12.8027 345.569 11.3947 342.924 10.2H337.42L334.476 9.048H331.404L329.1 10.2H326.284C323.468 11.48 320.865 12.4613 318.476 13.144C318.476 13.4853 317.111 14.424 314.38 15.96C314.039 15.96 313.612 15.576 313.1 14.808C316.769 10.712 319.671 8.66399 321.804 8.66399C321.804 7.98133 323.084 7.55466 325.644 7.384C325.644 7.21333 326.156 6.872 327.18 6.35999H337.164L339.98 5.07999ZM316.94 19.288H317.58C319.201 20.1413 320.481 21.3787 321.42 23V24.28C320.652 25.304 320.097 26.7973 319.756 28.76C318.305 33.368 315.447 39.64 311.18 47.576C310.924 47.576 310.497 48.472 309.9 50.264V51.288H332.94L335.756 52.44H341.9C342.241 52.44 342.668 52.8667 343.18 53.72V57.048C343.18 57.304 341.9 58.5413 339.34 60.76H335.5L332.684 59.48H328.46L325.644 58.2H316.3C315.703 57.8587 313.911 57.2187 310.924 56.28H307.596C304.865 57.9867 301.239 61.9547 296.716 68.184C291.511 73.9013 287.585 77.2293 284.94 78.168H281.1C280.759 78.168 280.332 77.6987 279.82 76.76V75.48C280.673 73.2613 282.807 70.744 286.22 67.928C286.647 67.928 290.06 64.3867 296.46 57.304V56.28H283.66C281.271 55.1707 279.991 54.3173 279.82 53.72C279.82 52.8667 281.228 52.3547 284.044 52.184L286.22 51.288H300.044C301.495 50.776 303.628 48.3013 306.444 43.864C307.212 42.1573 308.364 40.1093 309.9 37.72C312.289 33.1973 313.783 30.1253 314.38 28.504V26.84H313.356C310.455 28.7173 305.676 32.472 299.02 38.104L297.1 39H294.54C294.199 39 293.559 38.36 292.62 37.08V36.44C293.985 33.0267 296.545 29.4427 300.3 25.688C300.641 25.688 301.068 25.4747 301.58 25.048L302.476 25.688H305.164C306.871 24.92 309.729 23.1707 313.74 20.44C314.679 20.44 315.745 20.056 316.94 19.288ZM274.06 22.36C274.401 22.36 274.828 22.7867 275.34 23.64V52.44L274.06 55.384V91.48L272.14 96.216V106.84C272.14 107.096 271.073 108.205 268.94 110.168H267.66C266.124 109.656 264.844 108.163 263.82 105.688V103L265.1 100.184V94.168L267.02 88.664V76.76L268.3 74.456V60.76L269.58 57.816V44.76L270.86 41.816V28.76C271.201 28.3333 271.628 26.7547 272.14 24.024L274.06 22.36ZM302.86 26.84V27.48H303.5V26.84H302.86ZM316.94 65.24H320.14C322.615 66.8613 323.98 68.696 324.236 70.744C324.492 70.744 324.62 70.8293 324.62 71V72.28L322.06 78.936V81.88L322.7 82.904V85.08C322.615 86.0187 321.121 87.7253 318.22 90.2C316.428 91.1387 314.081 92.8453 311.18 95.32H308.236C307.212 96.088 305.975 96.6427 304.524 96.984C303.244 96.984 302.049 95.7893 300.94 93.4L298.38 86.36V82.904L297.1 79.96V72.28C298.636 69.8907 299.703 68.6107 300.3 68.44H301.58C301.836 68.44 302.263 68.8667 302.86 69.72V73.048H303.756C304.695 72.1093 306.657 70.6587 309.644 68.696C310.583 67.928 312.929 66.904 316.684 65.624C316.684 65.368 316.769 65.24 316.94 65.24ZM302.86 78.936V80.984L304.14 83.288V85.72H306.444C309.516 84.3547 311.308 82.8613 311.82 81.24C314.295 76.4613 316.001 73.3893 316.94 72.024V71H314.636C306.785 74.84 302.86 77.4853 302.86 78.936Z" fill="#2DAFA3"/>
</svg>
