<svg width="321" height="116" viewBox="0 0 321 116" fill="none" xmlns="http://www.w3.org/2000/svg">
<path d="M46.375 3.125C46.5417 3.29167 46.7083 3.375 46.875 3.375V3.75C46.7083 4.25 46.625 4.54167 46.625 4.625V5L46.875 5.75C47.4583 5.66667 48.0833 5.41667 48.75 5H49C49.0833 5.25 49.4583 5.375 50.125 5.375C50.4583 5.45833 50.625 5.54167 50.625 5.625L51.375 5.375C52.2917 5.375 53.3333 6 54.5 7.25C54.6667 7.25 55.25 7.79167 56.25 8.875C58.1667 10.4583 59.375 11.7917 59.875 12.875C60.2917 13.7083 60.5417 14.5 60.625 15.25C62.125 15.9167 62.875 16.75 62.875 17.75L63.25 17.5C63.4167 17.9167 63.5 18.2083 63.5 18.375H63.75L64 18.25L64.125 18.5V19.25C63.9583 20.4167 63.375 21.4167 62.375 22.25C62.2917 22.25 62 22.7083 61.5 23.625C60.8333 24.2083 59.9167 24.5 58.75 24.5L58.5 24.75L57.75 24.625H56.25L54.5 25H53.375L53 25.25H52.375L52.125 25.125C52.125 24.9583 52.875 24.4583 54.375 23.625C55.375 23.2083 55.875 22.9583 55.875 22.875L55.625 22.625H54.5C53 22.7917 51.5417 23.2083 50.125 23.875C46.625 25.875 44.625 26.875 44.125 26.875C44.125 26.7083 44 26.5833 43.75 26.5C43.75 26.5833 43.6667 26.7083 43.5 26.875H43.375V26.5C44.125 25.8333 44.5 25.1667 44.5 24.5V24.25C45.0833 22.6667 45.4167 21.625 45.5 21.125C45.5 20.7917 45.3333 20.625 45 20.625C44.75 20.625 44.4583 20.7917 44.125 21.125C44.125 20.4583 43.625 20.125 42.625 20.125C42.2083 19.7083 41.75 19.1667 41.25 18.5C41.1667 18.0833 40.8333 17.4167 40.25 16.5V14.875C40.9167 13.7083 41.4583 13 41.875 12.75L42 12.5V12.25H41.875C41.7917 12.25 41.5 12.3333 41 12.5L40.875 12.25L43 10.625L42.875 10.375C42.9583 10.2917 43 10.1667 43 10C42.6667 9.83333 42.5 9.70833 42.5 9.625L41.875 9.875L41.75 9.625V9.5L42.5 8.75C42.5 8.58333 42.375 8.5 42.125 8.5L41.75 8.75C41.4167 8.58333 41.125 8.5 40.875 8.5V8.25C41.7083 8.16667 42.4167 7.83333 43 7.25C43.25 6.83333 43.5 6.45833 43.75 6.125V6C43.5 6 43.375 5.83333 43.375 5.5C43.5417 5.25 43.625 5.04167 43.625 4.875L43.375 4.5V4.375C43.375 4.04167 43.875 3.83333 44.875 3.75C44.875 3.66667 45.375 3.45833 46.375 3.125ZM71.375 22.75C71.7083 22.8333 71.875 23 71.875 23.25C71.7917 23.4167 71.75 23.5417 71.75 23.625C72.0833 23.625 72.5417 23.7917 73.125 24.125V24.5C73.125 24.9167 73.3333 25.125 73.75 25.125C73.9167 25.125 74.125 25.0417 74.375 24.875H75.375L76.125 24.75C76.375 24.9167 77.125 25.0417 78.375 25.125C81.625 27.875 83.5833 29.6667 84.25 30.5C84.25 30.8333 84.5 31.3333 85 32V32.875C85 33.125 84.875 33.375 84.625 33.625C85.2083 34.375 85.5833 34.75 85.75 34.75C86.25 34.75 86.5 34.8333 86.5 35C86.6667 34.8333 86.8333 34.75 87 34.75C87.25 35.4167 87.4167 35.75 87.5 35.75C87.5833 35.8333 87.7083 35.875 87.875 35.875H88.375V37C88.0417 37.75 87.875 38.1667 87.875 38.25C87.4583 38.8333 85.7083 39.4167 82.625 40H81.375L81 40.25H80.125V40C80.125 39.8333 80.5 39.625 81.25 39.375V39.25C80.6667 39.0833 80.25 39 80 39H77.875C76.7917 39 74 40.375 69.5 43.125C69.4167 43.125 68.9583 43.2917 68.125 43.625C67.9583 43.4583 67.8333 43.375 67.75 43.375C67.6667 43.375 67.2917 43.7917 66.625 44.625C66.375 44.625 66 44.9167 65.5 45.5H65.375V45C65.375 44.9167 65.875 44.5 66.875 43.75C67.2917 43.1667 67.6667 42.875 68 42.875C68 42.9583 68.0417 43 68.125 43C68.125 42.9167 68.4167 42.4167 69 41.5C69.25 40.9167 69.375 40.5417 69.375 40.375L69.25 40.125C69.3333 40.0417 69.375 39.9167 69.375 39.75C69.125 39.5 68.875 39.375 68.625 39.375H68.375C68.2083 39.5417 67.8333 39.6667 67.25 39.75C66.8333 39.5833 66.625 39.4583 66.625 39.375C66.4583 39.5417 65.375 39.7083 63.375 39.875C63.375 39.9583 63.0417 40.0417 62.375 40.125C62.2917 40.0417 62.2083 40 62.125 40C61.7083 40.1667 60.7083 40.375 59.125 40.625C59.125 40.7083 59.0833 40.75 59 40.75H58.25C54.9167 41.5 51.875 42.2917 49.125 43.125C44.7917 44.7917 41.7083 46.125 39.875 47.125C37.5417 48.2917 35.4583 49.5417 33.625 50.875L33.5 51.125H33.75L34 51C34.25 51 34.375 51.0417 34.375 51.125H34.625C36.2917 51.4583 37.375 51.9583 37.875 52.625C38.2917 52.875 38.75 53.3333 39.25 54C39.8333 54 40.125 54.4167 40.125 55.25C40.4583 55.25 40.7917 55.5833 41.125 56.25V56.375L42.875 55.625C43.0417 55.2917 44.1667 54.4167 46.25 53C49.25 50.8333 51.7917 49.4583 53.875 48.875L58.375 47.375C58.9583 47.375 59.3333 47.2917 59.5 47.125H60.875C61.5417 47.125 62.0833 46.75 62.5 46L62.875 45.75C63.2917 45.75 63.5 46 63.5 46.5C63.4167 46.5 63.375 46.5417 63.375 46.625C63.625 46.7917 63.875 46.875 64.125 46.875H65C65.1667 46.875 65.3333 46.8333 65.5 46.75C65.8333 47 66.125 47.125 66.375 47.125C66.625 46.9583 66.7917 46.875 66.875 46.875C69.625 49.0417 71 50.75 71 52C71.0833 52 71.125 52.0833 71.125 52.25V53.5C71.125 53.6667 71.1667 53.8333 71.25 54C71.25 54.1667 70.7917 54.5833 69.875 55.25C69.375 56.5 68.9167 57.3333 68.5 57.75C68.1667 58.5833 67.375 59.6667 66.125 61C66.125 61.0833 65.4167 62.1667 64 64.25C64 64.4167 63.9583 64.5 63.875 64.5C64.0417 64.9167 64.2917 65.2083 64.625 65.375C65.375 65.0417 65.9167 64.875 66.25 64.875C68.1667 62.4583 69.125 61.125 69.125 60.875C69.2917 60.875 69.875 60.125 70.875 58.625C71.125 58.375 71.75 57.4583 72.75 55.875L73 55.75H73.125C73.2917 55.75 73.375 55.7917 73.375 55.875C73.2917 56.875 71.5 59.7917 68 64.625L67.375 66.125C67.5417 66.2083 68 66.3333 68.75 66.5H70.25L70.625 66.125C70.7917 66.125 70.875 66.1667 70.875 66.25V66.5C70.625 66.5 70.4583 66.7917 70.375 67.375C67.4583 70.0417 65.875 71.5833 65.625 72C65.2917 72 64.875 72.3333 64.375 73V73.125C64.5417 73.4583 64.75 73.625 65 73.625V73.75C64.25 74.3333 63.875 74.625 63.875 74.625L64 74.875C65.6667 74.125 66.75 73.375 67.25 72.625L69.75 70.5V70.75C68.1667 73.25 67.2083 74.7083 66.875 75.125C65.625 76.625 64.625 77.375 63.875 77.375H62.75C61.8333 76.9583 61.1667 76.2917 60.75 75.375H60.625L60.375 75.5C59.7917 75.0833 59.125 74.8333 58.375 74.75V74.625C57.875 74.625 57.5 75.2083 57.25 76.375L57.75 77.5C57.6667 77.6667 57.625 77.8333 57.625 78C57.625 78.0833 57.7083 78.25 57.875 78.5L57.75 78.75C57.75 78.8333 57.875 79.4167 58.125 80.5L57.5 81.625V83.75C57.5 83.8333 57.4583 83.875 57.375 83.875L57.5 84C57.3333 84.25 57.25 84.5 57.25 84.75V85.5C57.0833 85.6667 56.9583 86 56.875 86.5L57 86.625C56.8333 86.875 56.75 87.125 56.75 87.375V88.625C56.9167 89.375 57 89.7917 57 89.875H56.875C57.2083 90.4583 57.4583 90.75 57.625 90.75V90.5V90.375C57.625 90.2083 57.625 90.0833 57.625 90C57.625 89.5 57.8333 89.25 58.25 89.25L58.125 89V88.625C58.625 88.2917 58.875 87.75 58.875 87C58.9583 87 59 86.9583 59 86.875V86.75C59 86.3333 58.8333 86.125 58.5 86.125V85.875C59 85.875 59.25 85.7917 59.25 85.625V84.75C59.25 84.6667 59.2083 84.5417 59.125 84.375C59.2083 84.2083 59.25 84.0417 59.25 83.875V83.75L59.125 83C59.2083 82.75 59.3333 82.625 59.5 82.625C59.5833 82.625 59.625 82.7083 59.625 82.875V84.375C59.7917 84.875 59.875 85.1667 59.875 85.25V85.5C59.7083 86 59.625 86.2917 59.625 86.375V87.5C59.625 87.6667 59.6667 87.7917 59.75 87.875L59.25 91.125V92C59.25 92.3333 59.3333 92.625 59.5 92.875C59.4167 93.125 59.3333 93.25 59.25 93.25C60.5 98.25 61.3333 100.75 61.75 100.75C61.75 100.917 62.0417 101.792 62.625 103.375L62.75 104V104.625C62.9167 104.625 63.125 104.917 63.375 105.5V107.125C62.875 109.542 62.4167 110.75 62 110.75C61.4167 111.5 60.5417 112.042 59.375 112.375H58.25C57.5 112.375 56.7083 111.833 55.875 110.75V110.625H56.25C57 110.625 57.4583 110.125 57.625 109.125C57.625 109.125 57.625 109.083 57.625 109L56.875 108.125C55.2917 109.125 54.5 109.75 54.5 110H53.75C51.9167 109.667 50.0833 108.75 48.25 107.25L45.375 104.375C45.375 104.292 44.4583 103.25 42.625 101.25C42.0417 100.667 41.5833 99.7917 41.25 98.625C41.3333 98.4583 41.375 98.2917 41.375 98.125L41.125 97.875V91.375C41.2917 91.2083 41.375 91.0833 41.375 91L41.25 90.75C41.75 89.3333 42.0833 88.2917 42.25 87.625L42 87.5C41.9167 87.5 41.4583 87.75 40.625 88.25H40.25C39.8333 89 38.625 90.375 36.625 92.375C34.2083 94.7083 32.1667 97.1667 30.5 99.75C30.25 100.083 30.0417 100.417 29.875 100.75V102.5L30 103H29.875C29.9583 103.167 30 103.292 30 103.375H30.125C31.5417 102.042 32.6667 100.667 33.5 99.25C35.6667 96.5 36.8333 95.0833 37 95L37.125 95.125C36.625 95.875 35.0417 98.6667 32.375 103.5C30.7083 105.333 29.5417 107.292 28.875 109.375C28.4583 110.792 27.9167 111.5 27.25 111.5C27.25 111.667 27.1667 111.75 27 111.75H25.625C25.625 111.417 25.2917 110.917 24.625 110.25V109.875C24.625 109.708 24.8333 109.167 25.25 108.25C25.0833 108.25 24.875 107.958 24.625 107.375C24.0417 107.375 23.5417 107.792 23.125 108.625C22.7917 108.625 22.5 108.708 22.25 108.875L21.875 108.625C21.5417 108.792 21.125 108.875 20.625 108.875H20.25C19.5 108.458 18.125 107.083 16.125 104.75C15.5417 103.75 14.7917 102.875 13.875 102.125C12.7917 100.542 12.25 99.6667 12.25 99.5C11.6667 99.5 11 99.25 10.25 98.75C10.25 97.9167 10.0417 97.1667 9.625 96.5C9.625 96.4167 9.54167 96.125 9.375 95.625V94.25C9.54167 93.6667 10.125 92.875 11.125 91.875C11.125 91.625 12.2083 90.5417 14.375 88.625C14.875 88.2917 15.25 88.125 15.5 88.125V88.375C14 89.7083 13.25 90.8333 13.25 91.75L12.625 92.25L12.75 92.5V93.125H12.5V93.25C12.8333 92.75 13.25 92.4167 13.75 92.25C13.75 92 14.2083 91.5 15.125 90.75H15.5C15.5833 90.75 15.75 90.9583 16 91.375C15.6667 91.7917 15.5 92.125 15.5 92.375V92.5C16.6667 92.5 18.25 91.25 20.25 88.75C20.4167 88.75 21.0417 88.3333 22.125 87.5C23.2917 86.8333 24.5417 86.375 25.875 86.125C25.875 86.125 25.875 86.1667 25.875 86.25L26.5 86.125C28.1667 86.4583 29.2917 86.9583 29.875 87.625L29.625 88.5C29.7917 88.6667 29.875 88.875 29.875 89.125V89.25C29.4583 89.75 29.25 90.2083 29.25 90.625C29.75 90.625 30.4583 90.25 31.375 89.5C31.5417 89.5 31.625 89.5417 31.625 89.625V90.375L31.5 90.5C31.5833 90.5 31.625 90.5417 31.625 90.625C34.2083 89.7083 36 89.1667 37 89C37.25 89.0833 37.375 89.1667 37.375 89.25C38.375 88.8333 39 88.5417 39.25 88.375L39.875 88.5C39.875 88.0833 39.9583 87.875 40.125 87.875L40.375 88C40.375 87.75 40.9583 87.4167 42.125 87C42.125 87.1667 42.2083 87.25 42.375 87.25C42.375 87.1667 43.6667 85.125 46.25 81.125L47.125 79.625C47.375 79.0417 47.625 78.3333 47.875 77.5L47.75 76.75V75.5C47.75 75.4167 47.6667 75.0833 47.5 74.5V73.75C47.5 73.6667 47.5417 73.625 47.625 73.625C47.375 72.875 47.25 72.4583 47.25 72.375C47.5833 71.5417 47.7917 70.625 47.875 69.625L48.25 69.375C48.25 69.5417 48.4167 69.7083 48.75 69.875L48.625 69.25C48.9583 68.75 49.125 68.2917 49.125 67.875C49.5417 67.5417 49.75 67.2083 49.75 66.875V66.75C49.4167 66.75 49.2083 66.3333 49.125 65.5C48.625 64.75 48.2917 64.375 48.125 64.375C46.625 66.7083 45.75 68.4167 45.5 69.5C45.25 69.75 45.125 70.0417 45.125 70.375V71.5C45.5417 72.8333 45.9167 74.25 46.25 75.75V76.625C45.9167 77.2917 45.5833 78.4167 45.25 80C43.8333 80.75 43 81.125 42.75 81.125H42.25C42.25 80.625 41.5833 79.9167 40.25 79C39.5833 77.5833 39.25 76.7917 39.25 76.625H39.125C38.9583 76.625 38.875 76.7083 38.875 76.875L38.375 76.75L38 77.125C37.6667 76.9583 37.3333 76.875 37 76.875C37 76.875 36.7083 77.0833 36.125 77.5C35.7083 77.5 34.8333 76.9167 33.5 75.75C31.9167 74.3333 30.9167 73.2917 30.5 72.625L29.5 71.375C29.5 70.9583 28.625 69.9583 26.875 68.375C26.2083 67.2083 25.1667 66.2083 23.75 65.375C22.3333 64.125 21.625 62.7917 21.625 61.375C21.5417 61.375 21.4583 61.2083 21.375 60.875C21.4583 60.625 21.5 60.375 21.5 60.125C21.3333 59.875 21.25 59.6667 21.25 59.5V59.125C21.25 59.0417 21.3333 58.75 21.5 58.25V57.25L20.375 56C20.2083 55.5833 19.875 55.375 19.375 55.375L19 55.75H18.375C18.2083 55.75 17.875 55.6667 17.375 55.5C17.2083 55.6667 17 55.75 16.75 55.75H16.5C15.5833 55.4167 14.75 54.875 14 54.125C13 53.375 12.3333 52.7083 12 52.125C10.1667 50.2917 8.75 48.5417 7.75 46.875C6.83333 46.2917 6 45.4583 5.25 44.375L4.375 43C3.79167 43 3.25 42.6667 2.75 42C1.66667 41.3333 0.958333 40.5 0.625 39.5C0.708333 39.3333 0.75 39.1667 0.75 39C0.666667 38.8333 0.458333 38.0417 0.125 36.625V35.5C0.125 35.3333 0.208333 35.125 0.375 34.875L0.25 34.375C0.666667 32.875 1.45833 31.625 2.625 30.625H3.375C3.45833 30.625 3.54167 30.7083 3.625 30.875L3.125 32.875C3.29167 33.5417 3.41667 33.875 3.5 33.875H3.75C3.91667 33.7083 4.70833 33.5 6.125 33.25C6.29167 33.3333 6.45833 33.375 6.625 33.375C6.875 33.2917 8.25 33.125 10.75 32.875C10.75 32.7917 10.875 32.75 11.125 32.75H11.5C12 32.9167 12.2917 33 12.375 33C12.625 32.8333 12.8333 32.75 13 32.75H15.25C15.3333 32.75 15.625 32.6667 16.125 32.5H19C19.5 32.4167 19.7917 32.375 19.875 32.375H22.5V32.125H24.125L23.5 32.5V32.875C23.9167 32.7917 24.125 32.7083 24.125 32.625L24.875 32.75H25.875L28 32.375C28.0833 32.375 28.125 32.4167 28.125 32.5L29.25 32.375H30.5C30.75 32.4583 30.875 32.5417 30.875 32.625L32 32.5H33.125C33.4583 32.5 33.7083 32.4167 33.875 32.25L34.375 32.375H34.875C34.9583 32.2083 35.375 32.0833 36.125 32V32.125L36.75 31.625C36.75 31.7917 36.8333 31.875 37 31.875C40.75 31.0417 44.125 30.4167 47.125 30C47.125 29.8333 47.375 29.7083 47.875 29.625H49L49.25 29.5H50.25C50.3333 29.5 51.1667 29.2917 52.75 28.875V29C53 28.8333 53.375 28.75 53.875 28.75H54.5L54.75 28.625H56C58 28.2917 59.1667 28.0417 59.5 27.875C59.6667 27.875 59.8333 27.875 60 27.875C60.1667 27.7917 61.1667 27.5833 63 27.25C63.25 27 63.375 26.75 63.375 26.5H63.625L63.5 26.75C63.75 26.75 63.9583 26.7917 64.125 26.875C64.125 26.7083 64.125 26.5833 64.125 26.5C64.125 26.3333 64.125 26.2083 64.125 26.125C65.125 25.7917 65.625 25.5417 65.625 25.375V25H66.125C66.375 24.9167 66.9583 24.6667 67.875 24.25C67.875 23.8333 68.6667 23.4583 70.25 23.125C70.25 23.125 70.3333 23.125 70.5 23.125C71 22.875 71.2917 22.75 71.375 22.75ZM43 26.875H43.375C43.375 26.9583 43.2917 27 43.125 27H43V26.875ZM24.75 31.875H24.875V32.125H24.75V31.875ZM36.75 45.625H36.875C39.625 44.375 41.1667 43.75 41.5 43.75C42 43.3333 43.6667 42.7083 46.5 41.875C46.75 41.7083 47.5 41.4583 48.75 41.125C50.75 40.375 53.375 39.6667 56.625 39C56.5417 39 56.4167 38.9167 56.25 38.75H56C52.5833 39.3333 48.75 40.375 44.5 41.875C39.75 43.7917 37.1667 45.0417 36.75 45.625ZM79.625 40.25H79.875V40.5H79.625V40.25ZM44 64.375V66C44 66.0833 44.1667 66.6667 44.5 67.75C44.5 67.75 44.5 67.7917 44.5 67.875L44.625 68L46.375 65.25C46.5417 65.25 47.0833 64.625 48 63.375C48 62.4583 49 60.875 51 58.625C52.9167 57.125 54.1667 55.8333 54.75 54.75C53.3333 55 51.2083 56.375 48.375 58.875C46.5417 60.875 45.2083 62.625 44.375 64.125C44.2083 64.125 44.0833 64.2083 44 64.375ZM58.75 55.875C58.75 55.9583 58.25 56.2083 57.25 56.625C55.6667 57.375 54 58.4583 52.25 59.875C50.9167 61.2917 50.2083 62.125 50.125 62.375C50.125 62.5417 50.1667 62.625 50.25 62.625C50.6667 62.625 51.125 62.375 51.625 61.875L51.75 62.125L51.25 62.375C51.25 62.7083 51.625 62.9583 52.375 63.125V63.25C52.5417 63.1667 52.6667 63.125 52.75 63.125V62.875L52.625 62.625L52.875 62.5L53.5 62.625C54.4167 61.2917 55.5833 59.9583 57 58.625C57.1667 58.2917 57.9167 57.4167 59.25 56L58.75 55.875ZM26.5 59.625V59.75C26.5833 59.75 26.6667 59.7917 26.75 59.875L27 59.625C26.9167 59.4583 26.875 59.3333 26.875 59.25H26.75C26.6667 59.25 26.5833 59.375 26.5 59.625ZM50 65.75V65.875C50 65.9583 50.1667 66.0833 50.5 66.25H50.75C51.25 65.8333 51.5 65.4167 51.5 65V64.875C51.5 64.2917 51.375 64 51.125 64H51C50.3333 64.9167 50 65.5 50 65.75ZM71.125 65.875C71.2917 65.875 71.375 65.9583 71.375 66.125H71.125V65.875ZM56 73.625C56.25 73.7917 56.375 74 56.375 74.25H56.625V74C56.625 73.9167 56.4583 73.7917 56.125 73.625H56ZM44.75 86.875C44.8333 86.875 44.9583 86.9167 45.125 87C46.5417 84.3333 47.25 82.9583 47.25 82.875H47.375L47.5 83V83.25C47.5 83.3333 47.4583 83.375 47.375 83.375L47.5 83.625C47.3333 83.875 47.25 84 47.25 84V84.25L46.375 87.375C46.4583 87.375 46.5 87.4167 46.5 87.5C47 87.5 47.4167 86.9583 47.75 85.875C48.25 85.2083 48.8333 84.0417 49.5 82.375C49.9167 81.7083 50.2917 80.4167 50.625 78.5C50.7083 78.4167 50.75 78.2917 50.75 78.125C50.4167 77.9583 50.1667 77.875 50 77.875C50 77.9583 49.9583 78 49.875 78L49.625 77.625C49.9583 77.125 50.125 76.7917 50.125 76.625L50 76.5C48.8333 77.3333 48.2083 78.1667 48.125 79C46.9583 81 45.9583 83.25 45.125 85.75L44.75 86.875ZM58.125 78.125H58.375C58.375 78.2083 58.4167 78.3333 58.5 78.5V78.75C58.25 78.6667 58.125 78.4583 58.125 78.125ZM74.875 78.25C75.625 78.4167 76 78.625 76 78.875L75.875 79.125C76.2083 79.9583 76.5 80.375 76.75 80.375H77C77.25 80.375 77.5417 80.25 77.875 80C78.5417 80.5833 79.125 80.875 79.625 80.875H81.75C82.3333 80.875 83.0833 81.4167 84 82.5C84.8333 83.0833 86 84.0833 87.5 85.5C87.5833 85.5 88.125 85.9167 89.125 86.75C89.5417 87 90.2917 88.0833 91.375 90C91.625 90 91.9167 90.625 92.25 91.875C92.4167 91.875 92.5417 92.2083 92.625 92.875C93.0417 93.2917 93.9583 93.9167 95.375 94.75L96.25 96.125C96.0833 97.125 95.9167 97.875 95.75 98.375L95.875 98.625C95.875 99.0417 95.4167 99.4167 94.5 99.75C94.5 99.75 94.2083 99.9167 93.625 100.25L93.125 100.125C92.5417 100.208 92.25 100.292 92.25 100.375C91.5 100.292 91.0417 100.167 90.875 100H89.625C87.7083 100.333 86.625 100.583 86.375 100.75H85.625C85.125 100.75 84.8333 100.833 84.75 101L84.25 100.875C83.3333 101.042 82.6667 101.25 82.25 101.5C82.0833 101.417 81.9583 101.375 81.875 101.375L81.75 101.5C81.5833 101.417 81.4583 101.375 81.375 101.375L79.5 101.875L79.375 101.625C79.625 101.625 80 101.375 80.5 100.875C80.75 100.875 82.0417 100.292 84.375 99.125V99C83.875 98.8333 83.4583 98.75 83.125 98.75H82C81.9167 98.75 81.625 98.7917 81.125 98.875H81C78.0833 99.7917 75.5 101.042 73.25 102.625C70.25 104.792 68.4167 105.875 67.75 105.875C66.75 106.625 66.25 107.083 66.25 107.25H65.875V107.125C66.125 106.625 66.2917 106.375 66.375 106.375L66.625 106.5C66.625 106.083 66.875 105.75 67.375 105.5C67.375 105.25 67.7083 104.875 68.375 104.375C69.125 103.458 69.5 102.542 69.5 101.625L72.375 96C72.375 95.1667 72.0833 94.75 71.5 94.75C71.5 94.6667 71.3333 94.5 71 94.25H70.25V93.75C70.25 93.5833 69.7917 93.375 68.875 93.125C68.875 93.0417 68.3333 92.5833 67.25 91.75C66.75 91.1667 65.4167 89.625 63.25 87.125C62.8333 86.2083 62.5 85.75 62.25 85.75L62.375 85.625C62.375 85.375 62.0833 85.25 61.5 85.25H61.25C61.25 85 61.2083 84.8333 61.125 84.75C61.625 83.75 61.9167 83.25 62 83.25C61.9167 83.1667 61.875 83.0417 61.875 82.875H61.5C61.1667 82.9583 61 83.375 61 84.125C60.75 84.125 60.5417 83.75 60.375 83C60.375 83 60.375 82.9583 60.375 82.875V82.75C60.4583 82.1667 60.5 81.875 60.5 81.875V81.125C61.1667 80.625 61.8333 80.1667 62.5 79.75C65 79.3333 66.2917 79.125 66.375 79.125H67.875C67.875 79.125 68.1667 79.0417 68.75 78.875H70.625L71.875 78.5L72.5 78.625H72.75C73.3333 78.4583 74.0417 78.3333 74.875 78.25ZM58.5 79.875H58.75V80.5H58.5V79.875ZM59.25 81H59.5C59.5 81.1667 59.5 81.3333 59.5 81.5C59.5 81.6667 59.5 81.7917 59.5 81.875H59.25V81ZM62.25 83.625V83.75C62.25 83.8333 62.375 83.875 62.625 83.875C62.7917 83.875 62.9167 83.875 63 83.875V83.75C63 83.5833 62.875 83.5 62.625 83.5C62.4583 83.5833 62.3333 83.625 62.25 83.625ZM44.125 88.375C44.2083 88.4583 44.25 88.625 44.25 88.875C44.4167 88.875 44.625 88.5833 44.875 88L44.625 87.875H44.5C44.5 87.875 44.375 88.0417 44.125 88.375ZM45.875 88V88.375H46.125V88H45.875ZM44.125 89V89.25C44.2917 89.25 44.375 89.1667 44.375 89H44.125ZM58.25 89.875V90.125H58.5V89.875H58.25ZM44.125 93.625V94H44.25C44.4167 94 44.5 93.9167 44.5 93.75V93.625H44.125ZM65.5 107.25H65.875V107.375C65.7083 107.625 65.625 107.792 65.625 107.875H65.5C65.4167 107.875 65.2917 107.75 65.125 107.5L65.5 107.25ZM144.665 0H144.915C145.332 0.25 145.832 0.75 146.415 1.5C146.665 1.5 146.915 1.58333 147.165 1.75L147.415 0.875C147.832 1.04167 148.04 1.16667 148.04 1.25L148.29 1.125L148.415 1.25C148.498 1.25 148.748 1.125 149.165 0.875H149.54C150.29 1.125 151.832 2.41667 154.165 4.75C155.332 5.58333 156.332 6.66667 157.165 8C157.415 8.08333 157.79 8.66667 158.29 9.75C158.873 10.3333 159.623 11.5 160.54 13.25C160.623 13.25 160.748 13.5417 160.915 14.125C161.165 14.125 161.54 14.875 162.04 16.375V18C162.04 18.1667 162.207 18.3333 162.54 18.5C162.623 18.5 162.665 18.4583 162.665 18.375L163.29 18.5H163.79C164.123 18.3333 164.707 17.125 165.54 14.875C165.873 14.2083 166.165 13.625 166.415 13.125H166.665V13.5C166.248 14.75 165.498 16.3333 164.415 18.25V18.5C164.498 18.6667 164.582 18.75 164.665 18.75H164.915C165.748 18 166.207 17.625 166.29 17.625H166.415V17.875C165.915 18.2917 165.665 18.5417 165.665 18.625L166.04 19V19.5C165.207 21.4167 164.498 22.6667 163.915 23.25C163.082 24.6667 162.29 25.5833 161.54 26C161.207 26.1667 160.832 27.1667 160.415 29C160.332 29 160.29 29.0417 160.29 29.125L160.54 29.25L163.29 27.25C164.207 25.8333 165.29 23.8333 166.54 21.25C166.707 21.1667 167.332 19.7917 168.415 17.125V16.5L168.165 16.125V15.375H168.415L168.915 15.75C169.248 15.6667 169.665 15.4167 170.165 15C170.415 15 170.54 14.8333 170.54 14.5H171.415C172.415 15.0833 173.165 15.6667 173.665 16.25C174.082 16.25 174.623 16.7917 175.29 17.875L175.915 19.875V20.875L176.415 21.625V22.375C180.915 20.2917 183.415 19.25 183.915 19.25C185.498 18.4167 186.29 17.9583 186.29 17.875C186.373 17.875 186.915 17.4583 187.915 16.625L188.79 16C189.873 15.25 190.748 14.75 191.415 14.5C191.415 14.3333 191.998 14.1667 193.165 14C193.248 13.75 193.582 13.5833 194.165 13.5C194.165 13.5833 194.207 13.625 194.29 13.625C194.373 13.4583 194.457 13.375 194.54 13.375L194.665 13.625C194.248 13.7917 194.04 13.9583 194.04 14.125C194.04 14.2083 194.082 14.25 194.165 14.25L195.04 13.75C195.04 13.8333 195.082 13.875 195.165 13.875L195.415 13.5L195.665 13.625H195.79C196.123 13.4583 196.373 13.25 196.54 13C196.79 13 196.915 12.9167 196.915 12.75H198.415C198.415 12.8333 198.29 12.9583 198.04 13.125L197.915 13L197.79 13.25C197.873 13.4167 197.915 13.5833 197.915 13.75H198.165C198.165 13.4167 198.29 13.25 198.54 13.25C198.873 13.5 199.04 13.625 199.04 13.625H200.29C200.29 13.875 200.623 14.125 201.29 14.375L201.79 14.25H202.915L203.29 14.5L203.54 14.25H204.415C204.998 14.4167 205.457 14.75 205.79 15.25H205.915V15L205.665 14.625L205.915 14.5C205.915 14.6667 206.248 14.7917 206.915 14.875C210.082 17.4583 211.873 19.0833 212.29 19.75C212.79 20.3333 213.29 21.3333 213.79 22.75V23L213.665 23.375V23.5C213.665 23.6667 213.79 23.8333 214.04 24H214.29C214.457 24 214.582 23.9583 214.665 23.875C215.165 24.0417 215.415 24.2083 215.415 24.375V24.5L215.165 24.875V25H215.29L215.665 24.625H215.915C216.415 24.875 216.665 25.0417 216.665 25.125V25.375C216.415 26.5417 216.04 27.7917 215.54 29.125L214.04 33C213.457 35.1667 212.998 37.2083 212.665 39.125C212.582 39.125 212.54 39.1667 212.54 39.25V40H212.29V40.625C212.123 40.875 211.79 42.0833 211.29 44.25C210.623 46.5 209.873 48.3333 209.04 49.75C210.707 51.5833 211.665 52.5 211.915 52.5C213.498 54.3333 214.54 55.75 215.04 56.75C215.373 56.9167 215.873 57.7917 216.54 59.375C217.457 61.125 217.915 62.3333 217.915 63C218.165 64.0833 218.332 64.7083 218.415 64.875V66.375L218.665 66.625V69.25L218.415 69.625V70.625C218.165 71.2083 217.998 71.7917 217.915 72.375C216.665 76.375 215.248 79.9583 213.665 83.125C212.915 84.375 212.207 85.5 211.54 86.5C210.54 87.75 209.54 88.375 208.54 88.375H208.04C207.623 87.875 207.248 87.5417 206.915 87.375L206.79 87.125V86.125C207.04 86.125 207.54 85.7917 208.29 85.125C208.623 84.625 208.79 84.2917 208.79 84.125V83.75C208.79 83.5833 208.707 83.5 208.54 83.5H208.04L207.915 83.125C209.082 82.2917 209.748 81.6667 209.915 81.25H209.79L209.29 81.5C209.123 81.5 209.04 81.4583 209.04 81.375C208.873 81.375 207.915 82.1667 206.165 83.75C205.415 84 204.832 84.4583 204.415 85.125L203.54 84.625C203.373 84.7083 203.207 84.75 203.04 84.75C203.04 84.6667 202.998 84.625 202.915 84.625C202.915 84.7917 202.832 84.875 202.665 84.875C202.498 84.7083 202.415 84.625 202.415 84.625H202.165L201.79 84.875H201.165C199.915 84.125 198.332 82.5417 196.415 80.125C195.832 79.2917 195.54 78.7083 195.54 78.375C195.373 78.375 194.998 78.125 194.415 77.625C194.082 77.375 193.707 76.9167 193.29 76.25H193.165V76.5V78.75L192.915 79.125V83L192.665 83.25V87.625C192.832 88.125 192.915 88.4167 192.915 88.5V92.625L193.165 92.875V94.75C193.248 94.8333 193.332 95.2917 193.415 96.125C193.498 96.125 193.54 96.1667 193.54 96.25V97.25C193.707 97.4167 193.957 98.375 194.29 100.125C194.54 100.125 194.748 100.583 194.915 101.5C194.998 101.5 195.04 101.583 195.04 101.75C195.04 101.917 195.04 102 195.04 102C195.207 102.083 195.415 102.417 195.665 103H195.79V103.625C197.79 107.542 198.873 109.792 199.04 110.375V112.125C198.957 112.375 198.748 113.125 198.415 114.375C198.165 114.708 197.54 115.083 196.54 115.5H195.79C195.79 115 195.332 114.458 194.415 113.875C193.415 112.375 192.582 111.625 191.915 111.625L191.665 111.75C191.582 111.667 191.457 111.625 191.29 111.625L190.415 112.375H190.165C189.415 112.042 187.915 110.708 185.665 108.375C184.498 106.792 183.707 105.792 183.29 105.375C181.873 103.792 180.248 102.208 178.415 100.625L177.79 99.125H177.665V98.25C177.582 98.1667 177.457 97.75 177.29 97C177.29 97 177.29 96.9583 177.29 96.875V94.875C177.29 94.7917 177.207 94.5 177.04 94V91.625L177.29 91.25V87.375L177.415 87V85.125L177.665 84.875V83.625C177.832 83.4583 177.915 83.3333 177.915 83.25V82.5L179.29 75.5C179.373 75.5 179.415 75.4583 179.415 75.375V74.375L179.665 74V73C179.748 72.9167 179.873 72.5 180.04 71.75C180.123 71.75 180.165 71.7083 180.165 71.625V70.625L180.29 70.25V69.25L180.54 69V68C180.623 67.9167 180.748 67.4583 180.915 66.625C180.998 66.625 181.04 66.5833 181.04 66.5V65.375L181.165 65V64C181.332 63.8333 181.415 63.7083 181.415 63.625V62.75L181.665 62.375V61.375L181.915 61V60L182.04 59.75V58.75L182.29 58.375V57.375L182.54 57.125V56.125L182.79 55.75V54.5L182.915 54.25V52.75H183.165V51.125C183.165 50.9583 183.082 50.875 182.915 50.875L182.415 51.25L179.165 50.5C179.082 50.5 179.04 50.5417 179.04 50.625C178.457 50.5417 178.082 50.4167 177.915 50.25L177.54 50.5H171.79C171.707 50.5833 171.29 50.6667 170.54 50.75C170.373 50.6667 170.207 50.625 170.04 50.625C169.873 50.7917 169.248 50.9583 168.165 51.125C168.165 51.2083 168.123 51.25 168.04 51.25C167.957 51.1667 167.832 51.125 167.665 51.125C167.332 51.2083 166.748 51.3333 165.915 51.5H165.415V51.75H164.415C163.832 52.0833 162.957 52.3333 161.79 52.5L159.415 55.75V56.125C159.498 56.125 159.582 56.125 159.665 56.125L160.54 55.75C160.79 55.0833 161.04 54.7083 161.29 54.625C161.373 54.7083 161.457 54.75 161.54 54.75C161.54 54.6667 161.832 54.5 162.415 54.25C163.332 54.75 163.915 55.0833 164.165 55.25L164.54 55L165.165 55.25H165.665V55.125H166.165C166.832 55.125 169.04 56.9583 172.79 60.625C172.79 60.7917 173.332 61.5 174.415 62.75C174.415 63.0833 174.832 63.75 175.665 64.75L178.165 70V75.25H177.915V77.25L177.665 77.625V79.25L177.415 79.5V80.75L177.29 81.125V82.375L177.04 82.625V83.375C175.957 89.0417 174.832 93 173.665 95.25C172.748 97.5833 171.832 98.75 170.915 98.75H170.79C170.207 98.5 169.915 98.3333 169.915 98.25V98C170.248 97.5833 170.415 97.3333 170.415 97.25C170.165 96.8333 169.957 96.625 169.79 96.625L168.915 97.375H168.04C167.207 96.9583 165.998 95.75 164.415 93.75L164.04 93.5C163.54 93.9167 162.582 94.5417 161.165 95.375C159.998 96.375 158.373 97.3333 156.29 98.25C156.29 98.5 155.832 98.7917 154.915 99.125H152.915C152.665 99.125 152.29 99 151.79 98.75L151.54 98.875H151.415C150.415 98.375 149.623 97.625 149.04 96.625C148.207 95.5417 147.748 95 147.665 95H147.165C147.165 94.75 147.04 94.625 146.79 94.625V94.125L146.54 93.75L146.79 93.5V93.125C146.79 93.0417 146.707 92.75 146.54 92.25V91.75C146.373 91.8333 146.248 91.875 146.165 91.875C146.165 91.7917 145.998 91.6667 145.665 91.5H145.29C144.957 92.0833 144.498 92.375 143.915 92.375C143.582 92.375 143.332 92.4583 143.165 92.625H142.54C140.79 91.2917 139.415 89.7917 138.415 88.125C137.415 87.125 136.665 86.2083 136.165 85.375V84.75C133.665 87.1667 131.623 88.9583 130.04 90.125C129.79 90.4583 128.373 91.5 125.79 93.25C123.707 94.5 122.498 95.125 122.165 95.125C120.415 95.9583 118.915 96.375 117.665 96.375C117.665 96.4583 117.582 96.5 117.415 96.5H116.79V96.125C118.54 95.5417 119.415 95.0833 119.415 94.75H119.915C120.582 94.3333 121.248 94 121.915 93.75C124.498 92.3333 126.54 91.0833 128.04 90C130.373 88.25 132.498 86.4583 134.415 84.625V83.375C134.082 83.375 133.873 83.2917 133.79 83.125V82.375H133.665C130.248 85.7917 127.332 88.25 124.915 89.75C122.748 91.1667 120.79 92.25 119.04 93C118.457 93.25 117.832 93.7083 117.165 94.375C116.498 94.375 115.79 94.5 115.04 94.75H113.79L113.415 95H112.415L112.04 95.25H111.915C111.665 95.0833 111.498 95 111.415 95C111.248 95.0833 111.123 95.125 111.04 95.125C111.04 94.875 110.29 94.4167 108.79 93.75C107.79 92.8333 106.748 91.625 105.665 90.125C105.582 90.125 105.415 89.9583 105.165 89.625V89.125C105.165 88.7917 105.457 88.5 106.04 88.25C106.04 87.9167 106.123 87.6667 106.29 87.5V87.25C105.873 86.9167 105.665 86.625 105.665 86.375C105.415 86.5417 105.207 86.625 105.04 86.625L104.915 86.375L105.29 86.125H106.165C106.332 86.2917 106.707 86.4167 107.29 86.5L107.915 86.375H109.415C110.248 86.2083 110.79 86.0833 111.04 86H111.165V86.125H112.29C112.29 86.0417 112.957 85.75 114.29 85.25L114.54 85.75C115.79 85.25 117.623 84.125 120.04 82.375C121.457 81.5417 123.457 79.875 126.04 77.375C129.207 74.2917 131.332 72.0417 132.415 70.625C135.498 66.9583 137.04 65 137.04 64.75C137.123 64.75 137.79 63.875 139.04 62.125V61.875C138.373 62.0417 138.04 62.2083 138.04 62.375H137.665C137.498 62.375 137.332 62.3333 137.165 62.25C135.332 63.1667 133.915 63.7917 132.915 64.125H132.415V64.375H131.29C131.207 64.375 130.915 64.4583 130.415 64.625H130.165C130.082 64.625 129.79 64.5417 129.29 64.375H128.165L127.04 63.625L126.915 63.75H126.79C125.373 63 124.165 62.4583 123.165 62.125C123.165 62.0417 122.957 61.9167 122.54 61.75H122.29C122.04 61.5833 121.332 61.2917 120.165 60.875C118.248 58.9583 117.207 57.7083 117.04 57.125C116.123 56.4583 115.373 55.625 114.79 54.625C114.04 54.0417 113.54 53.75 113.29 53.75V53.125C113.457 53.125 113.54 53 113.54 52.75H113.79C113.79 53 113.957 53.125 114.29 53.125H114.665C114.832 53.125 114.957 53.0833 115.04 53C115.207 53.0833 115.373 53.125 115.54 53.125C115.623 53.125 115.665 53.0417 115.665 52.875V52.25C115.582 51.9167 115.082 51.5833 114.165 51.25V51.125C114.332 51.125 114.415 51.0417 114.415 50.875V50.625C114.415 50.5417 114.332 50.5 114.165 50.5H113.54C113.54 50.6667 113.498 50.8333 113.415 51C113.665 51 113.79 51.0833 113.79 51.25V51.5C113.29 51.5833 113.04 51.7917 113.04 52.125H112.915C112.915 52.0417 112.832 51.875 112.665 51.625V51L113.165 49.75H115.915L116.29 49.625L116.54 49.75H117.54C117.54 50.0833 117.832 50.3333 118.415 50.5C118.498 50.5 118.54 50.4583 118.54 50.375L119.165 50.5H120.29C120.29 50.5 120.582 50.5417 121.165 50.625H127.04C127.123 50.625 127.415 50.5833 127.915 50.5H129.04C129.123 50.5 129.415 50.4167 129.915 50.25H130.415C130.582 50.25 130.665 50.3333 130.665 50.5C130.748 50.4167 130.832 50.375 130.915 50.375C131.082 50.4583 131.207 50.5 131.29 50.5C131.29 50.3333 131.582 50.2083 132.165 50.125C132.248 50.2083 132.373 50.25 132.54 50.25C132.54 50.0833 132.957 49.9583 133.79 49.875C135.207 48.9583 136.665 48.25 138.165 47.75C138.165 47.5 138.332 47.375 138.665 47.375L140.54 46.375V46.25H141.04C141.707 45.8333 143.707 45.0417 147.04 43.875C147.04 43.7917 147.373 43.625 148.04 43.375C148.04 43.2917 148.082 43.25 148.165 43.25C148.248 43.25 148.29 43.2917 148.29 43.375L148.915 42.875H149.04L148.915 43.125H149.04C149.54 43.125 149.79 43 149.79 42.75H150.29C151.707 42.1667 153.207 41.6667 154.79 41.25C155.207 40.4167 156.29 38.7083 158.04 36.125L160.915 31.5C160.915 31.3333 160.832 31.25 160.665 31.25C159.248 32.1667 158.498 32.9583 158.415 33.625C157.582 35.125 156.498 36.75 155.165 38.5C155.082 39 154.373 39.8333 153.04 41C153.04 40.75 153.248 40.3333 153.665 39.75C154.165 38.4167 154.832 37 155.665 35.5L155.415 35.125L155.665 34.75V34.625C155.582 34.625 155.457 34.625 155.29 34.625C155.29 34.7917 154.832 35.125 153.915 35.625C153.082 35.9583 152.665 36.2917 152.665 36.625C151.665 38.625 150.832 40.1667 150.165 41.25C150.165 41.4167 149.873 41.7083 149.29 42.125L149.165 42.25C149.248 42.25 149.29 42.2917 149.29 42.375L149.04 42.5C148.873 42.5 148.79 42.4167 148.79 42.25C148.957 42.25 149.04 42.2083 149.04 42.125V41.375C148.707 40.7917 148.457 39.8333 148.29 38.5C148.123 38.5 148.04 38.375 148.04 38.125H147.165C147.082 38.0417 146.623 37.9167 145.79 37.75C145.79 37.5833 145.332 37.0833 144.415 36.25C144.415 36 144.332 35.875 144.165 35.875H143.665C143.665 35.7083 143.207 35.5417 142.29 35.375C142.29 35.2917 142.248 35.25 142.165 35.25H141.165C140.665 35.1667 139.373 34.125 137.29 32.125C137.29 31.9583 136.915 31.4167 136.165 30.5C134.498 28.4167 133.04 26.9583 131.79 26.125C131.457 25.5417 131.207 24.75 131.04 23.75C130.957 23.75 130.915 23.7083 130.915 23.625V22.375C131.165 21.7083 131.373 21.375 131.54 21.375H132.29C132.29 21.625 132.373 21.75 132.54 21.75H133.04C133.207 21.75 133.332 21.7083 133.415 21.625C133.582 21.7083 133.748 21.75 133.915 21.75H134.165C134.248 21.75 134.54 21.7083 135.04 21.625H136.04L136.29 21.375H137.915L139.04 22C139.123 22.1667 139.207 22.25 139.29 22.25H139.415C139.748 22.25 140.04 22.1667 140.29 22L140.415 22.25C140.332 22.25 140.165 22.375 139.915 22.625V23C140.248 23 140.832 22.875 141.665 22.625H142.04V22.5H142.665C143.415 22.0833 143.832 21.875 143.915 21.875V20.75C143.915 20.6667 143.998 20.375 144.165 19.875V17.75L144.415 17.375V15.5L144.665 15.125V13.5L144.79 13.25V11.875C144.707 11.7083 144.623 11.3333 144.54 10.75C144.29 10.75 143.998 9.70833 143.665 7.625C143.582 7.625 143.54 7.625 143.54 7.625V4.875L144.165 3.5V3.25C144.165 3.16667 143.873 3.04167 143.29 2.875V2.75C143.873 2.41667 144.165 2.20833 144.165 2.125V1.875C144.165 1.79167 144.082 1.5 143.915 1V0.375C144.415 0.375 144.665 0.25 144.665 0ZM140.915 3H141.04V3.25H140.915V3ZM140.915 3.75H141.04V4.75H140.915V3.75ZM194.915 13.25H195.04V13.625H194.915V13.25ZM193.165 14.5V14.625C193.582 14.5417 193.79 14.4167 193.79 14.25C193.79 14.1667 193.707 14.125 193.54 14.125C193.457 14.125 193.332 14.25 193.165 14.5ZM146.54 14.375V15.25L146.415 15.625V16.625L146.165 16.875V18.375L145.915 18.75V19.75L145.665 20V21L145.54 21.375V21.625H145.665C145.665 21.4583 145.748 21.375 145.915 21.375C145.915 21.5417 145.998 21.625 146.165 21.625H146.54C147.04 21.4583 147.29 21.1667 147.29 20.75V19L147.415 18.75V17L147.665 16.75V15.375C147.665 15.2917 147.332 14.9583 146.665 14.375H146.54ZM192.665 14.625V14.875H192.915V14.625H192.665ZM203.665 15H203.915H203.665ZM145.04 19.875V21C145.207 21 145.29 20.9167 145.29 20.75V19.875H145.04ZM144.79 21.625V21.875H145.04V21.625H144.79ZM175.79 22.5H176.04C176.207 22.5 176.29 22.4583 176.29 22.375H176.04C175.873 22.375 175.79 22.4167 175.79 22.5ZM214.54 25V25.25C214.623 25.25 214.665 25.1667 214.665 25H214.54ZM168.04 36.5C168.04 36.8333 168.707 37.2083 170.04 37.625C170.29 37.375 171.957 34.6667 175.04 29.5C174.123 28.75 173.665 27.9167 173.665 27C173.582 27.0833 172.665 28.7083 170.915 31.875L168.04 36.5ZM210.79 32.375V32.875H210.54V33.75C210.373 34 210.123 34.9583 209.79 36.625C209.54 37.7083 209.29 38.4583 209.04 38.875L209.165 39.125L209.04 39.375V40C208.79 40 208.54 40.7083 208.29 42.125C208.207 42.125 207.998 42.7083 207.665 43.875C207.582 43.875 207.373 44.5417 207.04 45.875C206.79 45.875 206.54 46.4583 206.29 47.625L208.04 48.75C208.29 48.5 208.665 47.8333 209.165 46.75V46.25L209.04 45.875H209.415C209.748 45.125 210.082 43.9167 210.415 42.25C210.498 42.25 210.54 42.2083 210.54 42.125V41.125C210.873 40.625 211.04 40.375 211.04 40.375L210.915 40.25L211.165 39.875V39.375C210.998 39.2083 210.915 39.125 210.915 39.125V38.75H211.165V39.125H211.415V38.75C211.248 38.5833 211.165 38.4583 211.165 38.375V37.875L211.79 38H211.915V36.625L212.04 36.375V35.75L211.915 35.5V35.25C211.915 35.0833 211.957 35 212.04 35C212.123 35.1667 212.207 35.25 212.29 35.25C212.373 35.25 212.54 34.5417 212.79 33.125C212.957 33.0417 213.207 32.375 213.54 31.125L213.79 30.375V30L213.665 29.625C213.748 29.625 213.79 29.5833 213.79 29.5L213.915 29.625H214.04C214.04 29.4583 214.082 29.2917 214.165 29.125C214.082 29.125 213.915 29.0417 213.665 28.875H213.415C211.915 29.375 211.165 30.125 211.165 31.125L210.79 32.375ZM154.79 32.125V32.25C156.29 31.9167 157.04 31.4167 157.04 30.75L157.415 30V29.375H157.665V29.125C155.915 29.7917 155.04 30.625 155.04 31.625C155.04 31.625 154.957 31.7917 154.79 32.125ZM171.665 37.5C171.915 37.75 172.123 37.875 172.29 37.875L172.54 37.75C172.873 38 173.373 38.2083 174.04 38.375C174.207 38.375 174.373 38.3333 174.54 38.25C175.54 39 176.748 40 178.165 41.25C179.582 42.1667 180.457 43.2917 180.79 44.625C180.957 44.625 181.082 44.875 181.165 45.375L180.29 46.5L180.415 46.75L180.665 46.625C181.165 46.7917 181.415 46.9167 181.415 47L180.54 48V48.25C181.207 49.1667 181.665 49.625 181.915 49.625C182.165 49.625 182.498 49.625 182.915 49.625L182.79 49.5C182.79 49.3333 183.082 49.0833 183.665 48.75V47.5L183.915 47.125V45.5L184.04 45.125V44C184.207 43.75 184.29 43.625 184.29 43.625V42.375L184.54 42.125V41.125C184.54 41.0417 184.623 40.75 184.79 40.25V39.625C181.79 37.0417 180.123 35.2083 179.79 34.125C179.707 34.125 178.54 32.9167 176.29 30.5H176.04L171.665 37.5ZM185.415 40.25C185.415 40.4167 185.332 40.5833 185.165 40.75V42L184.915 42.25V43.5L184.79 43.875V45.25L184.54 45.625V47L184.29 47.375V48.75L184.04 49.125V50.75L183.915 51.125V52.5L183.665 52.875V54.125L183.415 54.375V55.375L183.165 55.75V56.75L182.915 57.125V58.25L182.79 58.625V59.625L182.54 59.875V61.125H182.29V62.25L182.04 62.625V63.75L181.915 64.125V65.125L181.665 65.5V66.5L181.415 66.75V67.75L181.165 68.125V69.25L181.04 69.625V70.625C181.04 70.625 180.957 70.75 180.79 71V72.125L180.54 72.5V73.5L180.29 73.875V75L180.165 75.375V76.125C179.998 76.625 179.915 76.9167 179.915 77V77.875H179.665V79C179.498 80.0833 179.332 80.7083 179.165 80.875V82.125L179.04 82.375V83.875H179.165V83C179.332 82.9167 179.457 82.4583 179.54 81.625C179.623 81.625 179.665 81.5833 179.665 81.5V80.5H179.915V81.875L179.665 82.25V83.625L179.415 84V85.625L179.165 86V90.625C179.332 90.7917 179.498 91.25 179.665 92H179.915C179.748 91.75 179.665 91.5833 179.665 91.5C179.832 91.5 179.915 91.4167 179.915 91.25V89.375L180.165 89V86.125C180.165 85.9583 180.332 85.7917 180.665 85.625L180.54 85.375L181.04 84.25V83.375C181.04 83.2917 181.082 83 181.165 82.5V81.875H181.415V81L181.665 80.625V79.625L181.915 79.375V78.125C181.998 77.9583 182.04 77.8333 182.04 77.75V76.625H182.29V75.5C182.457 75.3333 182.623 74.625 182.79 73.375C182.873 73.375 182.915 73.2917 182.915 73.125V71.25H183.165V70.125C183.332 70.0417 183.457 69.625 183.54 68.875C183.623 68.875 183.665 68.8333 183.665 68.75V67.375L184.04 66.125V65.125L184.29 64.75V63.625L184.54 63.25V62.5C184.54 62.4167 184.623 62.125 184.79 61.625V60.75H184.915V59.625L185.165 59.25V58.25L185.415 58V56.75L185.665 56.375V55.25L186.04 54V53.75L185.79 53.375C185.79 53.375 185.873 53.0833 186.04 52.5V51.25C186.207 51.0833 186.29 50.9583 186.29 50.875V49.25L186.54 48.875V47.75L186.665 47.375V46.125C186.665 46.0417 186.748 45.75 186.915 45.25V44.375L187.165 44V42.875L187.415 42.5V41.25C187.582 41.0833 187.665 41 187.665 41V40.875L187.54 40.625L187.04 40.875L186.54 40.75C186.54 40.8333 186.498 40.875 186.415 40.875C186.415 40.7917 186.123 40.5833 185.54 40.25H185.415ZM195.415 44H194.54C194.457 44.6667 194.373 45.0833 194.29 45.25C194.373 45.4167 194.415 45.5833 194.415 45.75L194.165 46V48.75L194.04 49.125V51L193.79 51.375V53.25L193.54 53.5V55L193.29 55.25V57L193.165 57.25V58.5C192.998 58.5833 192.873 58.9583 192.79 59.625L192.915 59.875C192.748 60.125 192.54 60.8333 192.29 62L192.415 62.25C192.332 62.3333 192.248 62.7917 192.165 63.625C192.082 63.625 192.04 63.625 192.04 63.625V64.625L191.79 65V66L191.54 66.375V67.25C191.54 67.3333 191.623 67.375 191.79 67.375L192.165 67.25H193.04C193.123 66.5 193.207 66.0417 193.29 65.875V64.875C193.54 64.2917 193.748 64 193.915 64H194.04V63.5L193.79 63.125V62C193.79 61.9167 193.998 61.75 194.415 61.5V61L194.04 60.5L194.165 60.125V58.75L194.415 58.375V57L194.665 56.625V55.375C194.665 55.2083 194.707 55.0833 194.79 55C194.707 54.8333 194.665 54.7083 194.665 54.625C194.832 54.625 194.915 54.5417 194.915 54.375V53.25L195.04 52.875V51.5C195.207 51.25 195.29 51.125 195.29 51.125V49.5C195.457 49.25 195.54 49.0417 195.54 48.875H195.79V49.25H196.04V47.75C195.54 47.3333 195.29 47.0833 195.29 47V46.875L195.79 46C195.79 45.9167 195.665 45.8333 195.415 45.75C195.165 45.75 194.998 46.125 194.915 46.875H194.665V45.5C194.665 45.4167 194.79 45.2917 195.04 45.125L195.29 45.375H196.04C196.123 45.375 196.165 45.2917 196.165 45.125V44.5H196.665V45.125C196.665 45.2917 196.748 45.375 196.915 45.375H198.165C198.415 44.9583 198.915 43.875 199.665 42.125C199.748 42.125 199.79 42.125 199.79 42.125V41.25H199.665C199.248 41.4167 198.832 41.7083 198.415 42.125C198.248 42.125 197.957 42.4167 197.54 43C197.29 43 196.582 43.3333 195.415 44ZM209.915 43H210.04V43.125H209.915V43ZM209.415 44.5H209.665V44.75H209.415V44.5ZM196.04 46.375C196.04 46.5417 195.957 46.7083 195.79 46.875V47.125C195.79 47.2917 195.873 47.375 196.04 47.375C196.123 47.375 196.165 47.2917 196.165 47.125V46.375H196.04ZM196.665 46.875V47.75H196.915V46.875H196.665ZM165.165 49.25C165.082 49.1667 164.957 49.125 164.79 49.125L163.79 49.625L163.54 50C163.54 50.1667 163.665 50.25 163.915 50.25C164.498 50.0833 164.79 49.9167 164.79 49.75H166.04C166.207 49.4167 166.623 49.25 167.29 49.25V49.125C167.29 48.9583 167.207 48.875 167.04 48.875H166.54C166.29 48.875 165.832 49 165.165 49.25ZM196.665 49.625V51.875L196.415 52.25V54.125L196.165 54.375V56.25L196.04 56.625V58.25L195.79 58.625V60.25H195.54V61.375C195.373 61.875 195.29 62.1667 195.29 62.25V63.125L195.04 63.5V64.5C194.957 64.5833 194.873 65 194.79 65.75C194.707 65.75 194.665 65.7917 194.665 65.875V66.375C194.665 66.4583 194.748 66.5 194.915 66.5C195.498 66.3333 196.457 65.8333 197.79 65C200.373 62.5 201.832 60.7917 202.165 59.875C202.998 58.9583 203.498 57.9167 203.665 56.75V56.125C203.665 55.5417 202.998 55.0833 201.665 54.75C201.165 54.6667 200.498 54.1667 199.665 53.25C198.165 51.25 197.207 50.0417 196.79 49.625H196.665ZM161.29 50.125L161.04 50C161.04 50.1667 160.29 50.375 158.79 50.625C158.123 51.375 157.79 51.7917 157.79 51.875C157.873 51.875 157.998 51.9167 158.165 52L158.415 51.625L158.665 51.75C159.332 51.5 159.957 51.3333 160.54 51.25C161.04 51.25 161.54 50.8333 162.04 50V49.875H161.915C161.665 50.0417 161.457 50.125 161.29 50.125ZM114.665 52.375H115.04C115.04 52.5417 114.957 52.625 114.79 52.625H114.665V52.375ZM146.79 66.625V66.75C147.123 67.0833 147.29 67.3333 147.29 67.5C147.873 67.5 148.29 67.1667 148.54 66.5C150.623 64 152.415 62.0833 153.915 60.75C154.082 60.4167 154.373 60.125 154.79 59.875C154.79 59.7917 155.373 59.0417 156.54 57.625L159.54 53.5C159.54 53.4167 159.498 53.375 159.415 53.375C156.748 54.2083 155.415 54.8333 155.415 55.25C152.748 58.6667 151.29 60.5 151.04 60.75C151.04 60.9167 150.54 61.5833 149.54 62.75C147.707 65 146.79 66.2917 146.79 66.625ZM136.79 59.5C136.623 59.4167 136.498 59.375 136.415 59.375C135.915 59.9583 135.457 60.2917 135.04 60.375L134.79 60.25L131.54 61.5C131.54 61.6667 131.54 61.75 131.54 61.75C134.207 61.3333 136.373 60.6667 138.04 59.75C140.54 58.6667 142.373 57.5417 143.54 56.375V56.25C142.123 56.8333 141.165 57.2917 140.665 57.625C140.498 57.625 139.332 58.125 137.165 59.125C137.165 59.2917 137.04 59.4167 136.79 59.5ZM203.79 59.875H203.54C203.04 60.2917 202.707 60.7917 202.54 61.375C202.123 62.2917 201.748 62.8333 201.415 63L201.54 63.25V63.375C200.957 63.875 200.665 64.2083 200.665 64.375V64.5C201.498 63.75 202.123 63.1667 202.54 62.75L204.415 60.25C204.415 60.0833 204.623 59.4583 205.04 58.375V57.75C205.04 57.5833 204.957 57.5 204.79 57.5C204.707 57.5 204.54 58.125 204.29 59.375C204.04 59.7083 203.873 59.875 203.79 59.875ZM205.54 57.5L205.415 57.75V59C205.332 59.0833 205.248 59.5 205.165 60.25C204.832 61.0833 203.957 62.625 202.54 64.875C202.54 65.125 202.415 65.5 202.165 66H202.29L202.665 65.625C202.832 65.7083 202.957 65.75 203.04 65.75C203.04 65.75 203.373 65.375 204.04 64.625L204.29 64.75C204.373 64.5 204.623 64.125 205.04 63.625C205.79 62.125 206.165 61.2917 206.165 61.125C206.165 60.875 206.248 60.4167 206.415 59.75L206.29 59.5V59.125L206.54 58.875V58.125C206.29 57.9583 206.165 57.7917 206.165 57.625L205.54 57.5ZM151.04 74.25V74.375H151.165C152.415 73.2917 153.123 72.75 153.29 72.75C153.54 72.75 153.915 72.375 154.415 71.625C154.582 71.625 154.748 71.5833 154.915 71.5C155.248 71.75 155.457 71.875 155.54 71.875C155.707 71.875 156.123 71.4167 156.79 70.5C156.873 70.5 157.29 70.0833 158.04 69.25C158.29 69.25 158.582 68.9583 158.915 68.375C159.165 68.375 159.373 68.2083 159.54 67.875C159.957 67.875 160.415 67.0833 160.915 65.5V64.5H160.79C158.54 65.5833 156.915 66.6667 155.915 67.75C153.665 69.9167 152.123 71.9583 151.29 73.875C151.207 73.875 151.123 74 151.04 74.25ZM163.915 67L163.665 66.875H163.415C163.082 66.875 162.623 68.5417 162.04 71.875C161.79 72.7083 161.582 73.4583 161.415 74.125C161.415 74.125 161.415 74.1667 161.415 74.25V74.5C161.665 74.9167 161.79 75.25 161.79 75.5H162.04V74.875L162.29 74.5V73.5C162.623 71.25 162.957 70.125 163.29 70.125V70.25C163.207 70.25 162.998 71.1667 162.665 73C162.498 74.1667 162.29 75.0833 162.04 75.75L162.29 76.125L162.04 76.5V76.625C162.04 76.7083 162.123 76.75 162.29 76.75C162.373 76.6667 162.457 76.25 162.54 75.5C162.623 75.5 162.665 75.4583 162.665 75.375V74.125C162.998 73.2917 163.332 71.9167 163.665 70C164.082 68.25 164.332 67.25 164.415 67V66.5H164.29C164.207 66.5 164.082 66.6667 163.915 67ZM215.79 66.875V67.5H216.04V66.875H215.79ZM161.79 67.875V68.625H162.04V68L162.29 67.625V67.5H162.165C161.998 67.5 161.873 67.625 161.79 67.875ZM163.54 67.375H163.79V67.5C163.79 67.5833 163.748 67.625 163.665 67.625L163.79 67.875V68H163.54V67.375ZM215.665 67.75C215.665 68.25 215.29 68.9167 214.54 69.75C214.54 69.9167 214.457 70.0833 214.29 70.25V70.875C214.04 70.875 213.707 71.6667 213.29 73.25L211.665 76.5V77C211.498 77 211.123 77.625 210.54 78.875C210.457 78.875 210.29 79.0833 210.04 79.5V79.625C210.373 79.625 210.665 79.8333 210.915 80.25C211.082 80.25 211.748 79.25 212.915 77.25C213.082 77.25 213.207 77.0417 213.29 76.625C213.457 76.625 213.873 75.8333 214.54 74.25C214.623 73.75 214.79 73.4167 215.04 73.25C215.04 73.0833 215.457 71.875 216.29 69.625V68.5C216.04 68 215.832 67.75 215.665 67.75ZM216.29 68V68.25H216.54V68H216.29ZM159.79 68.375C157.623 70.4583 156.54 71.5417 156.54 71.625V71.875H156.665C156.665 71.875 156.79 71.8333 157.04 71.75C157.373 71.9167 157.957 72.0417 158.79 72.125C158.79 72.2917 158.957 72.4583 159.29 72.625H159.415C159.582 71.5417 159.79 70.625 160.04 69.875V68.5C160.04 68.4167 159.957 68.375 159.79 68.375ZM163.29 68.625H163.54V69H163.29V68.625ZM161.54 68.875V69.5H161.79V68.875H161.54ZM163.165 69.25H163.29V69.5H163.165V69.25ZM161.415 69.75V70.125H161.54V69.75H161.415ZM191.415 71.25L191.54 71.5V71.75L191.29 72.125C191.29 72.125 191.415 72.1667 191.665 72.25L192.29 71.875V71.75C192.29 71.5833 192.207 71.5 192.04 71.5C192.04 71.5833 191.998 71.625 191.915 71.625L191.79 71.375C191.873 71.375 192.04 71.25 192.29 71V70.375H192.165C191.832 70.5417 191.582 70.8333 191.415 71.25ZM161.165 71.125V71.5C161.332 71.5 161.415 71.4167 161.415 71.25V70.875C161.248 70.875 161.165 70.9583 161.165 71.125ZM194.04 71.25H194.165C194.248 71.25 194.29 71.2083 194.29 71.125H194.165C194.082 71.125 194.04 71.1667 194.04 71.25ZM190.915 71.25V71.5H191.165V71.25H190.915ZM190.915 72C190.915 72.1667 190.998 72.25 191.165 72.25V72H190.915ZM193.79 73V73.375H194.04C194.123 73.375 194.165 73.2917 194.165 73.125V72.875C193.998 72.9583 193.873 73 193.79 73ZM191.54 73.875V74C191.54 74.1667 191.707 74.2917 192.04 74.375V73.5H191.915C191.832 73.5 191.707 73.625 191.54 73.875ZM190.415 75.375V79L190.29 79.375L190.415 79.625C190.415 79.7083 190.415 79.75 190.415 79.75V80V80.125L190.29 80.5V84C190.29 84.1667 190.332 84.25 190.415 84.25C190.582 84.25 190.665 84.1667 190.665 84V82.75C190.832 82.5833 191.04 81.8333 191.29 80.5V80.25C191.207 80.0833 191.165 79.9583 191.165 79.875C191.332 78.7917 191.457 78.1667 191.54 78V76.75L191.79 76.5V74.875L190.915 74.25C190.748 74.25 190.623 74.5833 190.54 75.25C190.457 75.25 190.415 75.2917 190.415 75.375ZM192.29 74.875V75H192.415C192.415 74.9167 192.373 74.875 192.29 74.875ZM150.165 78.375V80.5L150.29 80.75V82.375H150.54C150.54 81.9583 150.623 81.6667 150.79 81.5L150.29 80.5V78.375H150.165ZM153.415 81.375V81.625L153.54 82.25H153.915C154.415 81.8333 154.915 81.0833 155.415 80C155.415 79.9167 155.29 79.7917 155.04 79.625C154.54 79.875 154.082 80.2917 153.665 80.875C153.665 80.9583 153.582 81.125 153.415 81.375ZM161.54 79.875C160.957 80.625 160.665 81.0417 160.665 81.125V85.25L160.915 85.625V86.875L161.165 87.125V88H161.415V88.625L161.79 89.75L161.54 89.875C160.457 88.4583 159.79 86.875 159.54 85.125L159.415 84.75V83.625C159.082 83.9583 157.582 86.125 154.915 90.125L155.165 90.5V91.125H154.915V91.5C155.082 91.6667 155.165 91.8333 155.165 92C155.998 91.8333 156.832 91.2917 157.665 90.375H158.04V90.5C158.04 90.5833 157.832 90.9583 157.415 91.625V92.25L157.915 92.375L158.165 92.25C158.332 92.3333 158.498 92.375 158.665 92.375L159.415 92.125H161.165L161.415 91.875H162.79L163.29 92V91.875C162.873 91.2083 162.582 90.3333 162.415 89.25C162.332 89.25 162.29 89.2083 162.29 89.125V88.125C162.123 87.9583 162.04 87.875 162.04 87.875V85.75L161.79 85.375V83.125L161.54 82.75V81.875L161.79 81.5V80.125C161.79 79.9583 161.707 79.875 161.54 79.875ZM210.04 80.5V80.75H210.165C210.332 80.75 210.415 80.6667 210.415 80.5H210.04ZM151.165 82.5C150.748 84.0833 150.457 85.5833 150.29 87C150.207 87 150.165 87 150.165 87V88.625L150.04 89.125C150.29 88.9583 150.873 88.25 151.79 87C152.873 85.5833 153.415 84.6667 153.415 84.25C153.082 83.75 152.582 83.375 151.915 83.125C151.915 83.0417 151.707 82.8333 151.29 82.5H151.165ZM171.915 92.25V92.5H172.165V92.25H171.915ZM171.665 92.625L171.29 94.5H171.165C170.998 94.5 170.915 94.4167 170.915 94.25L170.79 94.375L170.54 94.25L170.165 94.75V95C170.582 95.9167 170.832 96.375 170.915 96.375H171.04C171.207 95.5417 171.415 94.75 171.665 94C171.665 93.9167 171.748 93.625 171.915 93.125V92.625H171.665ZM161.29 97.875V98C161.29 98.0833 160.707 98.5417 159.54 99.375H159.415V99.25C159.832 98.75 160.457 98.2917 161.29 97.875ZM250.08 5H250.33L251.455 6.875H252.33C252.413 6.875 252.538 6.66667 252.705 6.25L252.83 6.375L253.58 6L253.83 6.25H254.33C254.33 6.25 254.538 6.04167 254.955 5.625C257.205 7.375 258.83 8.79167 259.83 9.875C260.413 10.7917 260.705 11.3333 260.705 11.5C261.622 12.8333 262.205 13.5 262.455 13.5C262.455 13.6667 262.705 14.375 263.205 15.625C263.372 15.5417 263.497 15.5 263.58 15.5C263.997 16.4167 264.247 17.2917 264.33 18.125C264.413 18.125 264.455 18.1667 264.455 18.25V19.875L264.205 20.125V21.75L263.955 22.125V23.375L263.83 23.625V24.875L263.58 25.25V26.5L263.33 26.75V28L263.08 28.375V29.5L262.955 29.875V30.625L262.83 31.125H263.705C265.705 31.875 267.205 32.7917 268.205 33.875C268.538 33.875 268.997 34.5 269.58 35.75V36.625C269.33 37.2917 269.122 37.625 268.955 37.625L269.08 38.125V38.5C268.413 39 268.08 39.6667 268.08 40.5C267.913 40.5 267.33 40.7917 266.33 41.375C265.997 41.375 265.33 41.5833 264.33 42C263.747 42.3333 263.122 42.5833 262.455 42.75C261.705 43.0833 261.038 43.4167 260.455 43.75V44C260.455 44.1667 260.538 44.25 260.705 44.25H260.955C261.122 44 261.83 43.6667 263.08 43.25C263.247 43.25 264.038 42.9167 265.455 42.25C266.622 41.9167 268.33 41.25 270.58 40.25C271.58 39.6667 272.163 39.375 272.33 39.375V39.5V40.125L271.705 41.375C271.955 41.375 272.497 41.125 273.33 40.625C273.663 40.625 274.497 40.2083 275.83 39.375C278.497 38.4583 279.83 37.7083 279.83 37.125C281.663 30.5417 282.83 25.75 283.33 22.75C283.413 22.0833 283.497 21.6667 283.58 21.5V20.5L283.83 20.125V19L284.08 18.625V16.125L284.33 15.75V10C284.163 9.83333 284.08 9.58333 284.08 9.25H283.955C283.538 9.5 283.163 10.375 282.83 11.875C282.747 11.875 282.705 11.9167 282.705 12V13.25H282.58V11.25C283.163 9.41667 283.788 8.33333 284.455 8C284.455 8.16667 284.455 8.29167 284.455 8.375V8.75C284.955 8.75 285.288 9.45833 285.455 10.875C285.705 10.875 285.872 11.1667 285.955 11.75C285.955 11.75 286.08 11.8333 286.33 12H286.455C287.538 11.1667 288.08 10.6667 288.08 10.5H289.205L289.955 9.75H290.08C293.83 12.6667 295.83 14.5833 296.08 15.5C296.247 15.5 296.413 15.7917 296.58 16.375C296.83 16.375 297.08 16.9583 297.33 18.125C298.163 18.5417 298.663 19.0833 298.83 19.75C298.83 20.0833 298.955 20.25 299.205 20.25L299.455 20.125L300.33 21.625V23.75L300.205 24.125V25.5C300.038 25.9167 299.788 27.0417 299.455 28.875C299.288 29.375 298.997 30.125 298.58 31.125V31.375C298.58 31.4583 299.163 31.9167 300.33 32.75C300.33 32.9167 300.663 33.25 301.33 33.75C301.997 34.5 302.372 35.4167 302.455 36.5C302.622 36.6667 302.788 37.0833 302.955 37.75C303.372 37.75 303.58 38.0417 303.58 38.625C303.913 38.7083 304.08 38.8333 304.08 39C303.33 39.5 302.872 39.75 302.705 39.75C302.205 40.25 301.83 41.125 301.58 42.375C301.247 43.2917 301.038 44 300.955 44.5L299.205 49.375C298.955 49.7083 298.788 50.2917 298.705 51.125C298.622 51.125 298.58 51.1667 298.58 51.25V52.625L298.455 53V55.5L298.205 55.875V58.625H298.455C298.538 57.875 299.83 54.1667 302.33 47.5C303.247 44.5833 303.913 42.5417 304.33 41.375V40.375L304.58 40V39.25H304.83V40.625L305.08 41V41.375C304.913 41.5417 304.747 42.25 304.58 43.5C304.413 43.5 304.205 44.25 303.955 45.75C303.788 45.8333 303.288 47.0833 302.455 49.5C301.705 51.5833 301.038 53.4583 300.455 55.125C300.288 55.5417 299.622 57.5 298.455 61V61.375C298.455 61.5417 298.497 61.625 298.58 61.625H299.33L299.58 61.375H300.58L302.205 59.875L302.33 60.125C301.83 60.7083 301.33 61.3333 300.83 62V62.25C300.913 62.3333 301.038 62.7917 301.205 63.625C301.288 63.875 301.372 64 301.455 64L302.205 63.375C302.205 63.4583 302.247 63.5 302.33 63.5L302.205 63.75V63.875H302.83C302.997 63.875 303.08 63.7917 303.08 63.625L302.83 63.25V60C303.497 58.0833 304.205 56.7083 304.955 55.875L305.08 56.125C304.913 56.125 304.747 56.5 304.58 57.25C304.33 57.25 304.08 57.9167 303.83 59.25C303.747 59.25 303.705 59.2917 303.705 59.375V60.625L303.455 61V63.375C303.455 63.5417 303.538 63.625 303.705 63.625H304.33C305.58 62.375 306.205 61.5 306.205 61C307.038 58.9167 308.33 56.75 310.08 54.5C311.58 52.6667 312.955 51.5417 314.205 51.125C314.622 51.125 314.997 50.875 315.33 50.375H315.455C315.872 50.5417 316.08 50.6667 316.08 50.75V51.125C315.497 52.625 315.08 54.1667 314.83 55.75C314.747 55.75 314.705 55.7917 314.705 55.875V57.25L314.455 57.625V61.75H314.58L315.455 61.125L315.83 61.75C315.497 62.4167 314.997 63.1667 314.33 64V65L314.08 65.375V67.75H314.33V68.125C313.83 69.4583 313.122 70.9167 312.205 72.5C311.788 73.25 310.788 74.4167 309.205 76C309.205 76.0833 309.08 76.125 308.83 76.125V76.375H309.205C309.372 76.2083 310.163 75.7917 311.58 75.125C312.83 74.625 313.58 74.1667 313.83 73.75V73.5L313.58 73.25C313.997 72.25 314.372 71.75 314.705 71.75V71.25L314.955 70.875V69.25L315.33 68V66.875L316.08 66.5C316.08 66 316.122 65.7083 316.205 65.625V64.625C316.372 64.4583 316.455 64.2083 316.455 63.875H316.705V64.5L316.955 64.75V69.625C316.955 69.7083 316.872 69.8333 316.705 70V71.25L315.58 74.375C314.247 76.0417 313.288 76.875 312.705 76.875L310.83 77.75H309.83L309.58 77.875H309.08C308.913 77.875 308.83 77.875 308.83 77.875H308.205H306.705C306.538 77.7917 305.83 77.6667 304.58 77.5C304.58 77.3333 304.497 77.25 304.33 77.25H303.33C303.163 77.1667 302.497 77 301.33 76.75C300.33 76.5 298.997 76 297.33 75.25C296.747 74.9167 295.58 74.375 293.83 73.625C291.33 71.5417 289.747 69.875 289.08 68.625L288.83 68.5C288.747 68.5 288.455 68.9583 287.955 69.875C287.455 70.375 286.913 70.7083 286.33 70.875H285.455C285.205 71.0417 285.08 71.125 285.08 71.125L284.705 70.875H282.955C282.455 70.4583 282.163 70.25 282.08 70.25H281.83C281.747 70.25 281.08 71.4583 279.83 73.875C278.58 76.0417 277.038 78.0417 275.205 79.875C274.288 80.5417 273.58 80.875 273.08 80.875C273.08 80.9583 273.038 81 272.955 81H272.455C271.788 80.75 271.413 80.5 271.33 80.25V80.125C271.663 80.125 272.955 79.2917 275.205 77.625C275.955 76.7917 276.413 76.3333 276.58 76.25C276.58 76.0833 277.33 75.0833 278.83 73.25C278.997 72.75 279.622 71.6667 280.705 70C280.705 69.75 279.913 69.4167 278.33 69C277.663 70.4167 276.955 71.5833 276.205 72.5L276.33 72.75C276.163 72.75 275.872 73.1667 275.455 74C274.038 75.5833 273.288 76.375 273.205 76.375C272.955 76.375 272.497 76.7917 271.83 77.625C271.663 77.9583 271.08 78.2917 270.08 78.625C269.913 78.5417 269.788 78.5 269.705 78.5C269.705 78.5 269.372 78.75 268.705 79.25C267.788 78.8333 266.747 78.4583 265.58 78.125C263.997 76.7917 262.788 75.4583 261.955 74.125C261.538 73.875 260.997 73.25 260.33 72.25C260.163 72.25 260.08 72.1667 260.08 72C260.163 72 260.288 71.8333 260.455 71.5C260.455 71.4167 260.372 71.375 260.205 71.375H260.08C259.913 71.375 259.83 71.4167 259.83 71.5L260.08 71.875L259.83 72.25L260.08 72.5V72.75C260.08 73 260.038 73.125 259.955 73.125L260.08 73.625V75L260.205 75.375V76.375C260.372 76.4583 260.497 76.9167 260.58 77.75C260.663 77.75 260.705 77.7917 260.705 77.875L260.58 78L260.705 78.25C260.705 78.3333 260.663 78.375 260.58 78.375C260.663 78.7917 260.788 79.125 260.955 79.375C260.872 79.5417 260.83 79.6667 260.83 79.75C260.997 79.75 261.122 80.0833 261.205 80.75C261.288 80.75 261.33 80.7917 261.33 80.875V82L260.705 84C260.122 84.75 259.58 85.2083 259.08 85.375H258.33C256.997 84.875 256.33 84.5 256.33 84.25V84C256.33 83.9167 256.413 83.7917 256.58 83.625H257.58C257.747 83.625 257.955 83.125 258.205 82.125C258.038 82.125 257.872 82 257.705 81.75L257.455 81.875C257.372 81.7917 257.288 81.75 257.205 81.75C257.205 81.8333 257.163 81.875 257.08 81.875C256.997 81.5417 256.788 81.3333 256.455 81.25H256.08C255.413 82 255.08 82.4583 255.08 82.625C255.163 82.7917 255.205 82.9583 255.205 83.125V83.25H253.705L252.955 82.75H251.955C250.705 82.3333 248.122 80.0833 244.205 76C244.205 75.6667 243.455 74.8333 241.955 73.5H241.455C240.955 73.75 240.288 74.0417 239.455 74.375H239.205C239.038 74.2083 238.913 74.125 238.83 74.125H238.705L238.33 74.375V74.25C239.163 73.3333 240.163 72.625 241.33 72.125V72L241.08 71.625V70.125C238.747 71.2917 236.58 72.2083 234.58 72.875H233.955C232.622 72.4583 231.622 71.7083 230.955 70.625C230.955 70.2917 230.58 69.75 229.83 69V68.75C229.83 68.5833 229.872 68.4583 229.955 68.375L229.83 68.125L229.955 67.875C229.872 67.7083 229.83 67.625 229.83 67.625C229.997 67.625 230.455 67.0833 231.205 66C233.622 63.8333 235.538 62.4583 236.955 61.875V61.75C236.872 61.5833 236.83 61.4583 236.83 61.375L237.205 61.125H237.455L237.83 61.375C237.913 61.375 237.955 61.2917 237.955 61.125H237.58C237.58 61.0417 237.663 61 237.83 61L238.205 61.125H238.33V61H237.955C237.955 60.8333 238.58 60.4583 239.83 59.875H240.33C240.33 59.875 240.413 59.9583 240.58 60.125H240.705V59.875H240.455C240.538 59.7083 241.08 59.4167 242.08 59H242.33V59.125C242.08 59.125 241.955 59.2083 241.955 59.375H242.455C242.955 59.125 243.997 58.75 245.58 58.25L246.205 57.375V56L246.33 55.625V54L246.58 53.625V52.625C246.58 52.4583 246.288 52.2917 245.705 52.125C245.705 51.4583 245.33 51 244.58 50.75C244.247 50.5 243.455 50.1667 242.205 49.75H240.955C238.955 48.6667 237.288 47 235.955 44.75C235.955 44.6667 235.455 44.1667 234.455 43.25C234.038 42.25 233.08 41.375 231.58 40.625L231.205 39.875V39.625L230.705 38.375V36.75C230.955 36 231.288 35.625 231.705 35.625C233.288 35.2917 235.372 34.7083 237.955 33.875C238.122 33.875 238.33 33.7917 238.58 33.625H238.705L239.33 33.75C239.33 33.5 239.413 33.375 239.58 33.375C239.58 33.5417 239.622 33.625 239.705 33.625C239.788 33.5417 240.247 33.4167 241.08 33.25V33H241.955C242.538 32.6667 243.413 32.375 244.58 32.125C244.58 32.125 244.622 32.125 244.705 32.125H244.83C244.997 32.125 245.08 32.2083 245.08 32.375H245.205C245.288 32.375 245.33 32.2917 245.33 32.125L245.205 32L245.455 31.875H245.58L245.955 32.125C246.122 31.9583 246.788 31.75 247.955 31.5C248.372 31.4167 248.58 31.2917 248.58 31.125V29.75L248.83 29.375V26.875L248.955 26.5V24.5L249.205 24.125V21.125L249.455 20.875V16.875L249.205 16.5V14.375L248.955 14.125L249.205 13.75V11.5C249.372 11.1667 249.622 10.375 249.955 9.125C250.038 9.125 250.08 9.04167 250.08 8.875V7.625L249.955 7.25V5.125C249.955 5.04167 249.997 5 250.08 5ZM284.08 8.875V9H284.33V8.75C284.163 8.75 284.08 8.79167 284.08 8.875ZM284.705 19.75V20.875C284.622 21.0417 284.538 21.5 284.455 22.25C284.372 22.25 284.33 22.2917 284.33 22.375V23.375C284.163 23.625 283.58 25.75 282.58 29.75C281.663 32.8333 280.955 35.375 280.455 37.375H280.58C282.663 36.5417 283.705 35.9583 283.705 35.625C284.705 32.125 285.455 29.125 285.955 26.625C286.038 26.0417 286.163 25.6667 286.33 25.5V24.5C286.413 24.4167 286.497 23.9583 286.58 23.125C286.663 23.125 286.705 23.0833 286.705 23V22C286.788 21.9167 286.913 21.5 287.08 20.75C287.163 20.75 287.205 20.7083 287.205 20.625C286.705 19.7083 286.247 19.125 285.83 18.875C285.747 18.875 285.622 19.4167 285.455 20.5H285.205V19.375L285.455 19V18.625C285.455 18.4583 285.372 18.375 285.205 18.375C285.038 18.375 284.913 18.7917 284.83 19.625C284.747 19.625 284.705 19.6667 284.705 19.75ZM261.58 19.5V20.5L261.33 20.875V22C261.247 22.0833 261.163 22.5417 261.08 23.375C260.997 23.375 260.955 23.4167 260.955 23.5V24.625L260.705 25V26.25L260.455 26.5V27.5L260.205 27.875V28.875L259.83 30.125C259.83 30.375 260.205 30.5417 260.955 30.625L261.08 30.25V28.875L261.33 28.5V27.125L261.58 26.75V25.375L261.83 25V23.75C261.913 23.6667 261.997 23.25 262.08 22.5C262.163 22.5 262.205 22.4583 262.205 22.375V22.25H262.08L261.955 22.375L261.83 22.125C261.997 22.125 262.08 22.0417 262.08 21.875V21.5L261.83 21.125V19.625L262.08 19.25V19.125H261.955C261.788 19.125 261.663 19.25 261.58 19.5ZM285.205 21.25C285.372 21.25 285.455 21.3333 285.455 21.5C285.288 21.5 285.205 21.6667 285.205 22H284.955V21.5C284.955 21.3333 285.038 21.25 285.205 21.25ZM284.705 22.75H284.955V23.125H284.705V22.75ZM251.33 23.75C251.413 23.9167 251.455 24.0417 251.455 24.125C251.038 24.2917 250.663 24.875 250.33 25.875H250.205L250.08 25.625V24.625H249.955C249.955 24.875 249.872 25.0833 249.705 25.25V27.125L249.455 27.375V29.5L249.205 29.875V31.625C249.205 31.7917 249.288 31.875 249.455 31.875C249.622 31.7083 249.788 31.625 249.955 31.625V31.375L249.58 31.625L249.455 31.375V31.125C249.455 31.0417 249.538 31 249.705 31C249.705 31.0833 249.788 31.125 249.955 31.125L250.205 31H250.455V31.125H250.08C250.163 31.2917 250.247 31.375 250.33 31.375H250.83C251.247 31.2083 251.455 31.0833 251.455 31V29.75L251.705 29.375V27.125L251.83 26.75V25.5L251.705 25.125V23.75L251.83 23.5V23.375C251.663 23.375 251.497 23.5 251.33 23.75ZM284.455 24.25H284.705V24.5H284.455V24.25ZM296.83 27.5V28H296.58V27.75C296.33 28 296.038 28.125 295.705 28.125V28.25L296.455 29.125H296.33L295.705 28.75C295.538 28.9167 295.288 29.5417 294.955 30.625C294.788 30.625 294.705 30.7083 294.705 30.875C294.788 31.0417 294.83 31.125 294.83 31.125C294.747 31.2083 294.705 31.2917 294.705 31.375C294.788 31.5417 294.83 31.75 294.83 32H294.955L296.455 31.125C296.622 30.0417 296.83 29.3333 297.08 29V27.5H296.83ZM249.455 32.375V32.625H249.705V32.375H249.455ZM237.33 34.375V34.625H237.58V34.375H237.33ZM271.33 42.625H271.58V42.375H271.455C271.372 42.4583 271.33 42.5417 271.33 42.625ZM268.705 44.25C268.372 43.9167 268.205 43.75 268.205 43.75H267.955C267.788 43.9167 267.622 44 267.455 44V44.25H267.58L267.83 44H267.955L268.455 44.625H268.83C268.997 44.5417 269.788 43.9167 271.205 42.75V42.625C270.705 42.7917 269.872 43.3333 268.705 44.25ZM288.455 46.375V46.625C288.955 46.375 289.33 46.0833 289.58 45.75C289.747 44.9167 289.955 44.3333 290.205 44V43.375C289.705 43.375 289.372 43.8333 289.205 44.75C288.955 45.1667 288.705 45.7083 288.455 46.375ZM259.83 48V49.375L259.58 49.75V52L259.33 52.375V53.5C259.413 53.5833 259.497 53.625 259.58 53.625H259.83C259.997 53.5417 260.747 53.375 262.08 53.125C262.08 53.0417 262.08 53 262.08 53H262.83L263.08 53.25L264.58 52.625L264.83 52.75C265.08 52.3333 265.413 52.125 265.83 52.125C266.33 51.7917 266.83 51.625 267.33 51.625V51.375H267.58V51.75C267.58 51.8333 267.205 52 266.455 52.25C265.955 53 265.08 53.75 263.83 54.5C262.58 55.5 261.83 56 261.58 56C261.58 56.0833 260.83 56.5833 259.33 57.5V62.25L259.58 62.625L259.33 62.875V63.375L259.58 63.75V68C259.58 68.1667 259.663 68.25 259.83 68.25H260.705L261.08 68C261.997 68.4167 262.538 68.7083 262.705 68.875L263.455 68.5L263.83 68.625H264.205C264.538 68.375 264.747 68.25 264.83 68.25H265.205L265.58 68.5H265.955C267.122 68 268.122 67.375 268.955 66.625C269.372 66.4583 269.872 66.0833 270.455 65.5C269.372 64.6667 268.663 64.0833 268.33 63.75L266.955 61.875C266.872 61.875 266.705 61.6667 266.455 61.25C266.455 61.0833 266.497 60.9583 266.58 60.875C266.497 60.7083 266.455 60.5833 266.455 60.5C266.538 60.5 266.663 60.375 266.83 60.125C266.83 59.9583 266.538 59.8333 265.955 59.75V59.625C267.038 59.2083 267.663 59 267.83 59L267.705 58.375C267.788 58.2917 267.83 58.2083 267.83 58.125C267.663 57.9583 267.288 57.8333 266.705 57.75V57.375C266.705 57.2917 267.038 57.0833 267.705 56.75C267.872 56.75 267.997 56.7917 268.08 56.875C268.247 56.7917 268.413 56.75 268.58 56.75L268.83 57H273.83C273.997 57.1667 274.705 57.3333 275.955 57.5C276.205 57.1667 276.33 56.7917 276.33 56.375C276.08 56.375 275.955 56.25 275.955 56V55.75C277.205 54.5833 277.872 53.5417 277.955 52.625C278.205 52.625 278.372 52.2917 278.455 51.625C278.538 51.625 278.58 51.5833 278.58 51.5V51.125H278.455C278.372 51.125 277.288 51.9583 275.205 53.625C275.038 53.625 274.872 53.7083 274.705 53.875H273.33L272.955 54.125H272.705L272.33 53.875H271.205C270.288 53.2083 269.205 52.2917 267.955 51.125C268.122 51.125 268.205 51.0417 268.205 50.875L267.705 49.875C267.288 49.7083 266.747 49.125 266.08 48.125C265.997 48.125 265.955 48.0833 265.955 48V47.875L267.58 45.75V45.25C267.58 45.1667 267.497 45.125 267.33 45.125L266.705 45.5H266.455C266.288 45.5 266.205 45.4167 266.205 45.25V45.125L266.955 44.25H266.83C262.413 46.1667 260.163 47.125 260.08 47.125C260.08 47.5417 259.997 47.8333 259.83 48ZM257.455 44.875V45C257.455 45.0833 257.58 45.1667 257.83 45.25H258.08C258.663 45 258.955 44.7917 258.955 44.625C258.955 44.4583 258.872 44.375 258.705 44.375C258.538 44.5417 258.122 44.7083 257.455 44.875ZM285.58 61.125V62H285.705L285.955 61.875C286.205 63.2083 286.455 63.875 286.705 63.875L287.33 62.875V62.25L287.205 62V60C288.205 56.8333 288.997 54.625 289.58 53.375H289.83V53.75C289.58 54.25 289.372 54.9167 289.205 55.75C288.955 56.9167 288.705 57.75 288.455 58.25V59C288.622 58.8333 289.372 56.7083 290.705 52.625C290.788 52.5417 291.205 51.375 291.955 49.125C292.622 47.625 292.955 46.625 292.955 46.125H292.705C292.455 46.2083 291.58 47.875 290.08 51.125C287.663 56.625 286.163 59.9583 285.58 61.125ZM282.33 60.75L284.08 62H284.33C284.747 61.3333 285.122 60.125 285.455 58.375C285.538 58.375 285.663 58.0833 285.83 57.5H286.08V57.75H286.33C286.33 57.5 286.955 55.875 288.205 52.875C288.538 52.0417 289.288 50.4167 290.455 48V47.625H290.33C289.497 48.2917 288.955 48.625 288.705 48.625C287.455 49.125 286.83 49.6667 286.83 50.25L282.33 60.75ZM257.205 48.625V51.625L256.955 51.875L257.205 52.25V54.125C257.205 54.2917 257.288 54.375 257.455 54.375H257.58L258.08 53.625C258.247 53.625 258.33 53.75 258.33 54C258.497 54 258.622 53.875 258.705 53.625V53.5L258.33 53V49.875L258.455 49.5V48.125C258.455 48.0417 258.413 48 258.33 48C257.58 48.3333 257.205 48.5417 257.205 48.625ZM317.33 48H317.58V48.25H317.33V48ZM248.205 49.125V49.25H248.955C249.622 49.0833 249.955 48.9583 249.955 48.875C249.955 48.7083 249.872 48.625 249.705 48.625H249.205C248.538 48.875 248.205 49.0417 248.205 49.125ZM317.08 48.75L317.205 48.875L316.955 49H316.83V48.875C316.83 48.7917 316.913 48.75 317.08 48.75ZM247.705 49.125V49.5C247.705 49.6667 247.788 49.75 247.955 49.75C248.038 49.75 248.08 49.6667 248.08 49.5V49.25L247.705 49.125ZM316.33 49.25H316.58V49.375C316.58 49.4583 316.455 49.5833 316.205 49.75C316.122 49.75 316.08 49.6667 316.08 49.5C316.08 49.5 316.163 49.4167 316.33 49.25ZM315.83 49.875H315.955V50C315.955 50.1667 315.83 50.2917 315.58 50.375V50.125C315.58 49.9583 315.663 49.875 315.83 49.875ZM244.955 50.125V50.25C244.955 50.3333 245.122 50.5 245.455 50.75H246.08C246.08 50.5833 245.788 50.375 245.205 50.125H244.955ZM267.955 51.25V51.625H267.705V51.5C267.788 51.3333 267.872 51.25 267.955 51.25ZM247.205 52.75V54.625L247.08 55V57.125L246.83 57.375C246.83 57.5417 246.913 57.625 247.08 57.625H247.205C248.288 57.2917 248.872 57 248.955 56.75V55.75L249.205 55.375V54L249.455 53.625V52.25C247.955 52.5 247.205 52.6667 247.205 52.75ZM289.83 52.625H290.08V52.875H289.83V52.625ZM286.705 54.625H286.955V54.875H286.705V54.625ZM286.455 55.375H286.705V55.625C286.705 55.7917 286.622 55.875 286.455 55.875V55.375ZM286.455 55.875V56.375C286.372 56.5417 286.33 56.7917 286.33 57.125H286.08V56.625C286.247 56.125 286.372 55.875 286.455 55.875ZM242.705 58.75H242.83V59H242.705V58.75ZM257.205 59.125V61.75H257.455C257.455 61.4167 257.455 61.1667 257.455 61C257.455 60.9167 257.455 60.8333 257.455 60.75C257.538 60.75 257.58 60.6667 257.58 60.5L257.455 60.125V59.75L257.58 59.375V58.875H257.455C257.372 58.875 257.288 58.9583 257.205 59.125ZM288.205 59.125V59.5H288.455V59.125H288.205ZM241.455 59.375V59.625H241.83V59.375H241.455ZM241.205 59.625V59.875H241.455V59.625H241.205ZM317.33 59.875H317.705V60.125C317.455 60.125 316.955 60.4583 316.205 61.125H316.08C315.913 61.125 315.83 61.0833 315.83 61C316.58 60.5 316.955 60.2083 316.955 60.125C317.038 60.125 317.163 60.0417 317.33 59.875ZM239.58 60.25V60.5H239.83V60.25H239.58ZM239.205 60.5V60.75H239.455V60.5H239.205ZM237.08 61.625H237.455V61.375H237.33C237.163 61.375 237.08 61.4583 237.08 61.625ZM303.705 62.5H303.83V62.75H303.705V62.5ZM247.455 66.75V67.5H247.705V66.75H247.455ZM314.33 67.5H314.455V67.625C314.455 67.7083 314.413 67.75 314.33 67.75V67.5ZM246.83 67.75C246.83 67.9167 246.705 68 246.455 68L246.58 68.5L246.455 69.125H246.58L247.33 68.5C247.247 68.4167 247.205 68.3333 247.205 68.25C247.372 68.25 247.455 68.1667 247.455 68C247.455 67.8333 247.372 67.75 247.205 67.75H246.83ZM265.58 68H265.705V68.25H265.33C265.33 68.0833 265.413 68 265.58 68ZM259.58 69.125L259.83 69.5V70.375C259.83 70.5417 259.913 70.625 260.08 70.625H260.455C261.038 70.375 261.33 70.1667 261.33 70L261.08 69.625V69.5C261.08 69.4167 261.205 69.375 261.455 69.375V69.125C261.372 69.125 261.08 69.2083 260.58 69.375L259.955 68.75C259.788 68.75 259.663 68.875 259.58 69.125ZM314.705 71.875V72.125H314.955V71.875H314.705ZM314.455 72.375V72.5H314.705V72.25C314.538 72.25 314.455 72.2917 314.455 72.375ZM306.08 82.5H306.205C307.038 83.1667 307.455 83.75 307.455 84.25C307.872 84.25 308.08 84 308.08 83.5H308.205L308.83 84C308.997 83.9167 309.122 83.875 309.205 83.875C309.205 84.0417 309.288 84.125 309.455 84.125H309.705L310.08 83.625H310.455C311.205 84.0417 313.122 85.7917 316.205 88.875C316.872 89.7083 317.497 90.7083 318.08 91.875C318.247 91.875 318.58 92.3333 319.08 93.25V94L318.33 93.5H318.205V93.75L318.705 94.625C318.705 94.7917 318.622 94.875 318.455 94.875C318.455 94.7083 318.372 94.625 318.205 94.625C318.122 94.7083 318.08 94.7917 318.08 94.875V95.125L318.205 95.5V96.25H318.08L317.58 95.75C317.413 95.75 316.413 96.75 314.58 98.75C314.413 98.75 313.955 99.0833 313.205 99.75C313.038 99.75 312.33 100.167 311.08 101C308.747 102.25 306.663 103.25 304.83 104L300.08 106.75L298.33 107.5C298.163 107.167 298.038 107 297.955 107H297.58L297.705 107.375L297.58 107.5H297.33V107.125C297.33 106.958 297.58 106.833 298.08 106.75C298.163 106.833 298.205 106.917 298.205 107C298.372 107 298.455 106.958 298.455 106.875V106.75L298.205 106.375C298.788 106.208 299.288 105.583 299.705 104.5L299.83 104.25C299.747 104.083 299.705 104 299.705 104C299.705 103.917 300.83 102.25 303.08 99C303.997 97.75 305.122 96.0417 306.455 93.875V93.75H304.83L304.455 94H303.455L302.455 94.5C302.372 94.5 302.288 94.375 302.205 94.125V93.75L303.08 92C303.08 91.9167 302.997 91.875 302.83 91.875H302.33L302.08 92L301.83 91.875L301.58 92C301.497 92 301.455 91.9583 301.455 91.875L300.955 92H300.205C300.038 92.1667 299.372 92.375 298.205 92.625C295.788 93.4583 294.038 94.3333 292.955 95.25V95.625C293.288 96.375 293.58 96.7917 293.83 96.875C295.747 95.625 297.163 94.8333 298.08 94.5H299.08L299.455 94.25H299.58C299.747 94.25 299.872 94.375 299.955 94.625C299.538 94.625 297.997 95.5417 295.33 97.375C294.163 98.2917 293.58 99.375 293.58 100.625C292.83 101.375 292.288 101.833 291.955 102L291.705 101.875C291.538 101.958 291.413 102 291.33 102C290.913 101.75 290.705 101.417 290.705 101C290.455 100 289.997 99.2917 289.33 98.875H289.205L288.58 99.375H287.205L286.83 99.5H286.58C286.08 99.4167 284.788 98.3333 282.705 96.25L281.455 95.375L280.205 94.625C279.788 94.625 279.288 94.4167 278.705 94C278.372 94 277.538 93.7917 276.205 93.375C275.872 93.375 275.622 93.2917 275.455 93.125H275.205L273.58 93.75C272.747 93.8333 271.705 95.0417 270.455 97.375L269.705 98.5V98.625L269.955 99L269.705 99.375V100.25C269.705 100.333 269.955 100.542 270.455 100.875L270.955 100.375L271.455 100.5C271.538 100 272.163 99 273.33 97.5C274.747 95.5833 275.663 94.625 276.08 94.625V94.875V95.25C274.247 96.9167 273.163 98.5833 272.83 100.25C272.663 100.25 272.413 101 272.08 102.5C271.747 103.167 271.288 103.708 270.705 104.125H270.455C269.872 103.875 269.58 103.708 269.58 103.625V103.5C269.913 103.5 270.08 103.25 270.08 102.75L269.955 102.5L270.08 102.25L269.33 100.875C268.33 101.292 267.83 101.75 267.83 102.25L267.705 102.375H267.455C267.038 102.208 266.83 102.125 266.83 102.125H266.33H264.955C263.372 100.875 261.788 99.25 260.205 97.25C258.372 95.5 257.372 94.625 257.205 94.625H256.955C255.872 95.2083 254.872 95.9583 253.955 96.875C252.122 98.4583 250.997 99.625 250.58 100.375V101.25C250.58 101.417 250.538 101.542 250.455 101.625C250.538 101.792 250.58 101.958 250.58 102.125V102.875C250.747 103.042 250.83 103.292 250.83 103.625C251.08 103.542 252.038 102.458 253.705 100.375C253.705 100.542 253.247 101.667 252.33 103.75C251.997 104.417 251.705 105.583 251.455 107.25L250.83 108.5C250.58 108.833 250.08 109.167 249.33 109.5H248.455C248.038 109.167 247.622 108.708 247.205 108.125C247.122 108.125 247.038 107.833 246.955 107.25C246.622 107.167 246.038 106.875 245.205 106.375H244.83L244.455 106.625L244.205 106.375H243.955C243.788 106.542 243.663 106.625 243.58 106.625H243.205C242.288 106.208 240.663 104.708 238.33 102.125C237.58 100.958 237.038 100.208 236.705 99.875C236.455 99.875 235.955 99.375 235.205 98.375C233.122 96.7083 232.08 95.5 232.08 94.75C232.08 94.25 231.913 93.6667 231.58 93V91.875C231.663 91.7917 231.788 91.375 231.955 90.625C233.038 88.7917 234.288 87.3333 235.705 86.25H235.83C235.913 86.3333 235.955 86.4167 235.955 86.5C235.622 86.75 235.163 87.4583 234.58 88.625C234.497 88.625 234.455 88.6667 234.455 88.75L234.705 89.125L233.955 90.125C234.038 90.2917 234.08 90.4167 234.08 90.5C233.913 90.5 233.788 90.625 233.705 90.875C233.872 91.2917 233.997 91.5 234.08 91.5H234.205C234.705 90.4167 235.413 89.5 236.33 88.75H236.705C236.788 88.75 236.83 88.8333 236.83 89C236.663 89 236.497 89.25 236.33 89.75C236.413 89.9167 236.455 90 236.455 90C235.955 90.3333 235.705 90.75 235.705 91.25C235.538 91.25 235.372 91.4583 235.205 91.875C235.205 92.375 235.705 92.625 236.705 92.625V92.25L236.455 91.875V91.375C236.455 91.2083 236.747 91.0833 237.33 91V90.875C237.247 90.7083 237.205 90.5833 237.205 90.5L237.455 90.625C239.038 88.7917 240.08 87.7083 240.58 87.375C240.663 87.375 240.872 87.25 241.205 87H242.455L242.705 86.75H242.955L243.33 87H244.33C246.33 87.75 247.538 88.5417 247.955 89.375L248.33 90.125V91.5C248.33 91.6667 247.955 91.7917 247.205 91.875C247.205 92.125 247.163 92.4167 247.08 92.75L247.455 92.875H248.08V93.25H248.33V92.625C248.33 92.4583 248.747 92.0417 249.58 91.375L249.705 91.625V92.875C250.122 93.9583 250.413 94.5 250.58 94.5H250.955C251.872 94.1667 252.58 93.875 253.08 93.625L253.455 93.75H253.705L253.455 93.5C254.538 93.1667 255.288 92.625 255.705 91.875L255.58 91.75C255.58 91.6667 255.622 91.625 255.705 91.625C255.705 91.2083 255.622 90.875 255.455 90.625C255.455 90.5417 255.497 90.5 255.58 90.5L255.455 90V89.5C255.455 89.4167 255.538 89.2917 255.705 89.125H256.08L257.455 90.25H257.83L258.205 90H258.33C258.58 90.25 258.913 90.375 259.33 90.375V90.25L259.205 90V89.875C259.205 89.7083 259.247 89.625 259.33 89.625C260.663 90.2917 261.58 90.875 262.08 91.375L263.58 92.75H263.83C265.497 91.6667 267.413 90.25 269.58 88.5C270.08 88.25 270.33 88.0833 270.33 88C270.247 87.8333 270.205 87.7083 270.205 87.625C270.205 87.375 270.913 87.125 272.33 86.875C273.08 86.875 273.788 86.2917 274.455 85.125C275.455 84.875 275.955 84.6667 275.955 84.5L275.705 84.25V84.125C275.872 84.125 276.038 84.0417 276.205 83.875H276.955C277.038 83.875 277.58 84.375 278.58 85.375L278.83 85.25H279.33L280.705 85.875H280.955C281.288 85.5417 281.497 85.375 281.58 85.375C283.497 86.5417 284.955 87.625 285.955 88.625C285.955 88.7083 286.08 88.8333 286.33 89L288.205 88.25C288.288 88.5833 288.372 88.75 288.455 88.75H288.955C290.122 88.1667 291.372 87.6667 292.705 87.25C292.705 86.9167 293.497 86.5417 295.08 86.125C296.58 85.7917 297.497 85.5417 297.83 85.375H298.83C298.913 85.2917 299.372 85.2083 300.205 85.125C300.205 85.0417 300.247 85 300.33 85H301.455C301.538 85 301.663 84.9167 301.83 84.75H302.83C302.997 84.75 303.913 84.1667 305.58 83C305.747 83 305.913 82.8333 306.08 82.5ZM278.33 86.125C278.33 86.2083 278.413 86.25 278.58 86.25H278.83C278.83 86.0833 278.747 85.9583 278.58 85.875C278.413 85.875 278.33 85.9583 278.33 86.125ZM255.33 93.125V93.375H255.58V93.125H255.33ZM300.205 94C300.288 94 300.33 94.0833 300.33 94.25C300.33 94.4167 300.288 94.5 300.205 94.5L299.955 94.125L300.205 94ZM300.705 94H300.955V94.25H300.705V94ZM319.08 94C319.413 94 319.622 94.5417 319.705 95.625H319.83C319.913 95.625 319.955 95.5 319.955 95.25H320.205C320.205 95.5833 320.372 95.875 320.705 96.125V97.5C319.622 99.8333 317.288 101.708 313.705 103.125H312.705L312.455 103.25H311.955V103.125C312.205 103.125 312.663 102.75 313.33 102C315.413 100.833 317.122 99.5 318.455 98V97.5L318.205 97.25C318.205 97.1667 318.247 97.125 318.33 97.125L318.205 96.5V96.25H318.33L318.705 96.5C318.788 96.5 318.913 96.25 319.08 95.75V94ZM319.08 96.5V96.875C319.247 96.875 319.33 96.7917 319.33 96.625V96.5H319.08ZM246.58 106.375V106.875C246.58 106.958 246.663 107 246.83 107H247.08C247.163 107 247.205 106.958 247.205 106.875C247.122 106.708 247.08 106.417 247.08 106H246.955C246.788 106 246.663 106.125 246.58 106.375ZM296.83 107.75H297.08C297.08 107.917 296.955 108.042 296.705 108.125L296.58 107.875C296.663 107.792 296.747 107.75 296.83 107.75ZM295.705 108.75C295.705 108.833 295.622 108.917 295.455 109H295.33C295.33 108.917 295.455 108.833 295.705 108.75ZM294.83 109.25H295.08C295.08 109.333 294.913 109.458 294.58 109.625C294.58 109.458 294.663 109.333 294.83 109.25ZM293.58 110.375V110.5H293.33C293.33 110.417 293.413 110.375 293.58 110.375Z" fill="#0B99BC"/>
</svg>
